<svg xmlns="http://www.w3.org/2000/svg" xmlns:xlink="http://www.w3.org/1999/xlink" style="display:none">
  <symbol id="linkedin" viewBox="0 0 128 128"><path fill="#0A66C2" d="M116 3H12a8.91 8.91 0 00-9 8.8v104.42a8.91 8.91 0 009 8.78h104a8.93 8.93 0 009-8.81V11.77A8.93 8.93 0 00116 3z"/><path fill="#fff" d="M21.06 48.73h18.11V107H21.06zm9.06-29a10.5 10.5 0 11-10.5 10.49 10.5 10.5 0 0110.5-10.49M50.53 48.73h17.36v8h.24c2.42-4.58 8.32-9.41 17.13-9.41C103.6 47.28 107 59.35 107 75v32H88.89V78.65c0-6.75-.12-15.44-9.41-15.44s-10.87 7.36-10.87 15V107H50.53z"/></symbol>
  <symbol id="github" viewBox="0 0 1024 1024">
    <path fill-rule="evenodd" clip-rule="evenodd" d="M8 0C3.58 0 0 3.58 0 8C0 11.54 2.29 14.53 5.47 15.59C5.87 15.66 6.02 15.42 6.02 15.21C6.02 15.02 6.01 14.39 6.01 13.72C4 14.09 3.48 13.23 3.32 12.78C3.23 12.55 2.84 11.84 2.5 11.65C2.22 11.5 1.82 11.13 2.49 11.12C3.12 11.11 3.57 11.7 3.72 11.94C4.44 13.15 5.59 12.81 6.05 12.6C6.12 12.08 6.33 11.73 6.56 11.53C4.78 11.33 2.92 10.64 2.92 7.58C2.92 6.71 3.23 5.99 3.74 5.43C3.66 5.23 3.38 4.41 3.82 3.31C3.82 3.31 4.49 3.1 6.02 4.13C6.66 3.95 7.34 3.86 8.02 3.86C8.7 3.86 9.38 3.95 10.02 4.13C11.55 3.09 12.22 3.31 12.22 3.31C12.66 4.41 12.38 5.23 12.3 5.43C12.81 5.99 13.12 6.7 13.12 7.58C13.12 10.65 11.25 11.33 9.47 11.53C9.76 11.78 10.01 12.26 10.01 13.01C10.01 14.08 10 14.94 10 15.21C10 15.42 10.15 15.67 10.55 15.59C13.71 14.53 16 11.53 16 8C16 3.58 12.42 0 8 0Z" transform="scale(64)" fill="currentColor"/>
  </symbol>
  <symbol id="mail" viewBox="0 0 122.88 88.86"><title>email</title><path d="M7.05,0H115.83a7.07,7.07,0,0,1,7,7.05V81.81a7,7,0,0,1-1.22,4,2.78,2.78,0,0,1-.66,1,2.62,2.62,0,0,1-.66.46,7,7,0,0,1-4.51,1.65H7.05a7.07,7.07,0,0,1-7-7V7.05A7.07,7.07,0,0,1,7.05,0Zm-.3,78.84L43.53,40.62,6.75,9.54v69.3ZM49.07,45.39,9.77,83.45h103L75.22,45.39l-11,9.21h0a2.7,2.7,0,0,1-3.45,0L49.07,45.39Zm31.6-4.84,35.46,38.6V9.2L80.67,40.55ZM10.21,5.41,62.39,47.7,112.27,5.41Z"/></symbol>
  <symbol id="ucr" viewBox="0 0 383.2 158.2"><g fill="currentColor"><path d="m309 57 45 60h-21q-3-1-6-5l-27-42-13-12 1-5q32-4 27-27-4-20-32-14v104h-19l2-17V22q1-12-10-12 1-8 9-7h43q18 1 22 15 6 18-8 30zM382 158q-190-17-381 0l-1-2 6-3q34-6 67-10 63-6 126-7 89 0 178 16l6 3zM28 9l5-6h21v74c1 13 4 24 17 29q23 9 41-6 6-7 8-18 4-39-1-79h16q1 39-2 77-1 34-37 39-19 3-37-4-19-9-19-27l-1-46-1-21q2-11-10-12M243 98c-1 15-3 18-15 19q-20 2-40-1c-38-9-54-59-30-92q17-20 44-23 22-3 44 4l-6 18-2-1q-21-19-47-9-24 10-25 37 0 16 4 31c12 31 46 31 67 21z"/></g></symbol>
  <symbol id="arrow" viewBox="0 0 18 14">
    <g fill="none" fill-rule="evenodd" stroke="currentColor" stroke-linecap="round" stroke-linejoin="round" stroke-width="2">
      <path d="M1 7h16M11 1l6 6-6 6"></path>
    </g>
  </symbol>
  <symbol id="message" viewBox="0 0 32 32">
    <g stroke="currentColor" fill="currentColor">
      <path d="M24 7H8a3 3 0 0 0-3 3v10a3 3 0 0 0 3 3h1v4a1 1 0 0 0 1.61.79L16.77 23H24a3 3 0 0 0 3-3V10a3 3 0 0 0-3-3Zm1 13a1 1 0 0 1-1 1h-7.57a1 1 0 0 0-.61.21L11 25v-3a1 1 0 0 0-1-1H8a1 1 0 0 1-1-1V10a1 1 0 0 1 1-1h16a1 1 0 0 1 1 1Z"></path>
      <path d="M11 14h6a1 1 0 0 0 0-2h-6a1 1 0 0 0 0 2zm10 2H11a1 1 0 0 0 0 2h10a1 1 0 0 0 0-2z"></path>
    </g>
  </symbol>
  <symbol id="astro" viewBox="0 0 128 128"><defs><linearGradient id="astroa" x1="882.997" x2="638.955" y1="27.113" y2="866.902" gradientTransform="scale(.1)" gradientUnits="userSpaceOnUse"><stop offset="0" stop-color="#000014"/><stop offset="1" stop-color="#150426"/></linearGradient><linearGradient id="astrob" x1="1001.68" x2="790.326" y1="652.45" y2="1094.91" gradientTransform="scale(.1)" gradientUnits="userSpaceOnUse"><stop offset="0" stop-color="#ff1639"/><stop offset="1" stop-color="#ff1639" stop-opacity="0"/></linearGradient></defs><path fill="url(#astroa)" d="M81.504 9.465c.973 1.207 1.469 2.836 2.457 6.09l21.656 71.136a90.079 90.079 0 0 0-25.89-8.765L65.629 30.28a1.833 1.833 0 0 0-3.52.004L48.18 77.902a90.104 90.104 0 0 0-26.003 8.778l21.758-71.14c.996-3.25 1.492-4.876 2.464-6.083a8.023 8.023 0 0 1 3.243-2.398c1.433-.575 3.136-.575 6.535-.575H71.72c3.402 0 5.105 0 6.543.579a7.988 7.988 0 0 1 3.242 2.402Zm0 0"/><path fill="#ff5d01" d="M84.094 90.074c-3.57 3.055-10.696 5.137-18.903 5.137-10.07 0-18.515-3.137-20.754-7.356-.8 2.418-.98 5.184-.98 6.954 0 0-.527 8.675 5.508 14.71a5.671 5.671 0 0 1 5.672-5.671c5.37 0 5.367 4.683 5.363 8.488v.336c0 5.773 3.527 10.719 8.543 12.805a11.62 11.62 0 0 1-1.172-5.098c0-5.508 3.23-7.555 6.988-9.938 2.989-1.894 6.309-4 8.594-8.222a15.513 15.513 0 0 0 1.875-7.41 15.55 15.55 0 0 0-.734-4.735Zm0 0"/><path fill="url(#astrob)" d="M84.094 90.074c-3.57 3.055-10.696 5.137-18.903 5.137-10.07 0-18.515-3.137-20.754-7.356-.8 2.418-.98 5.184-.98 6.954 0 0-.527 8.675 5.508 14.71a5.671 5.671 0 0 1 5.672-5.671c5.37 0 5.367 4.683 5.363 8.488v.336c0 5.773 3.527 10.719 8.543 12.805a11.62 11.62 0 0 1-1.172-5.098c0-5.508 3.23-7.555 6.988-9.938 2.989-1.894 6.309-4 8.594-8.222a15.513 15.513 0 0 0 1.875-7.41 15.55 15.55 0 0 0-.734-4.735Zm0 0"/></symbol>
  <symbol id="nextjs" viewBox="0 0 128 128" xmlns="http://www.w3.org/2000/svg"><defs><linearGradient id="nexta" x2="1" y2="1"><stop offset=".1" stop-color="#fff"/><stop offset="1" stop-color="#000"/></linearGradient><linearGradient id="nextb" x2="0" y2="1"><stop offset="0" stop-color="#fff"/><stop offset=".85" stop-color="#000"/></linearGradient></defs><path d="M41.6 41.8h6.8v50.1h-6.8z" fill="#fff" stroke="#fff" stroke-width=".5"/><path d="M48.4 41.8l50.5 75.8A64 64 0 0 1 94.8 120.1L48.4 55.3z" fill="url(#nexta)"/><path d="M86.1 84.6h-7.5V41.8h7.5z" fill="url(#nextb)"/><path d="M64 0C28.7 0 0 28.7 0 64s28.7 64 64 64c11.2 0 21.7-2.9 30.8-7.9L48.4 55.3v36.6h-6.8V41.8h6.8l50.5 75.8C116.4 106.2 128 86.5 128 64c0-35.3-28.7-64-64-64zm22.1 84.6h-7.5V41.8h7.5z"/></symbol>
  <symbol id="nextjs2" viewBox="0 0 128 128"><path d="M64 0C28.7 0 0 28.7 0 64s28.7 64 64 64c11.2 0 21.7-2.9 30.8-7.9L48.4 55.3v36.6h-6.8V41.8h6.8l50.5 75.8C116.4 106.2 128 86.5 128 64c0-35.3-28.7-64-64-64zm22.1 84.6l-7.5-11.3V41.8h7.5v42.8z"/></symbol>
  <symbol id="airflow" viewBox="0 0 128 128"><path fill="#017cee" d="m3 127 60-62a1 1 0 0 0 0-2c-3-5-10-6-13-9q-9-16-12-16h-1L15 61C3 74 1 102 0 126a1 1 0 0 0 3 1"/><path fill="#00ad46" d="M127 125 65 65a1 1 0 0 0-2 0c-5 3-6 10-9 13q-16 9-16 12v1l23 22c13 12 41 14 65 15a1 1 0 0 0 1-3"/><path fill="#04d659" d="M61 113c-7-7-11-21 3-49-22 10-30 23-26 27z"/><path fill="#00c7d4" d="M125 1 65 63a1 1 0 0 0 0 2c3 5 10 6 13 9q9 16 12 16h1l22-23c12-13 14-41 14-65a1 1 0 0 0-2-1"/><path fill="#11e1ee" d="M113 67c-7 7-21 11-49-3 10 22 23 30 27 26z"/><path fill="#e43921" d="m1 3 62 60a1 1 0 0 0 2 0c5-3 6-10 9-13q16-9 16-12v-1L67 15C54 3 26 1 2 0a1 1 0 0 0-1 3"/><path fill="#ff7557" d="M67 15c7 7 11 21-3 49 22-10 30-23 26-27z"/><path fill="#0cb6ff" d="M15 61c7-7 21-11 49 3-10-22-23-30-27-26z"/><circle cx="64" cy="64" r="2.7" fill="#4a4848"/></symbol>
  <symbol id="druid" viewBox="0 0 24 24" fill="#29f1fb"><path d="M8.932 20.806c-.369 0-.738.007-1.109 0-.35-.007-.587-.206-.623-.5a.587.587 0 0 1 .53-.636c.79-.062 1.582-.063 2.372-.003a.548.548 0 0 1 .522.602c-.024.326-.253.526-.616.54zM1.792 8.345c-.392 0-.782.008-1.173.002-.327-.006-.577-.22-.614-.512-.037-.293.146-.544.499-.615.192-.032.388-.045.583-.039a81.515 81.515 0 0 1 1.597 0c.163 0 .325.019.483.056.288.073.445.318.411.617-.034.298-.214.477-.515.487-.424.014-.848.004-1.272.004zm7.588 8.417H4.292a2.464 2.464 0 0 1-.326-.007c-.294-.04-.48-.209-.508-.506-.029-.298.11-.501.391-.606.179-.065.365-.051.549-.051 3.347 0 6.695.005 10.042-.006 1.174-.004 2.187-.439 2.993-1.3.69-.738 1.053-1.63 1.16-2.635.085-.788-.027-1.513-.516-2.156-.544-.718-1.28-1.078-2.163-1.082-3.163-.013-6.328-.005-9.487-.01-.336 0-.673-.027-1.007-.058-.29-.027-.45-.201-.469-.492-.021-.317.141-.545.429-.6a1.55 1.55 0 0 1 .29-.015h10.177c1.71.004 3.187 1.038 3.726 2.654.383 1.147.246 2.304-.182 3.416-.824 2.135-2.762 3.448-5.055 3.454-1.652.005-3.304 0-4.956 0zm2.906-13.568c1.533 0 3.066-.008 4.598 0 2.935.018 5.629 1.892 6.653 4.626.442 1.181.538 2.403.412 3.657-.185 1.842-.735 3.552-1.776 5.084-1.608 2.365-3.873 3.68-6.679 4.118-.95.148-1.905.13-2.86.13-.397 0-.61-.181-.633-.51-.025-.351.196-.621.587-.645.434-.026.87-.004 1.305-.016 2.641-.072 4.928-.982 6.74-2.935 1.269-1.37 1.912-3.039 2.13-4.878.151-1.275.135-2.544-.37-3.752-.773-1.85-2.159-2.983-4.068-3.509-.74-.204-1.5-.243-2.26-.247-2.837-.017-5.675-.007-8.511-.007-.12 0-.24.004-.359-.006a.57.57 0 0 1-.517-.536.557.557 0 0 1 .456-.557c.13-.018.261-.024.392-.019h4.762Z"/></symbol>
  <symbol id="spark" viewBox="0 0 128 128"><path fill="#e15919" d="M57.646.004c-2.269.064-4.51 1.143-6.384 3.223-1.03 1.146-1.905 2.51-2.63 3.855-1.89 3.54-2.262 7.547-2.962 11.43l-3.852 21.81c-.148.856-.532 1.21-1.3 1.455l-28.268 8.98c-2.06.673-4.125 1.543-5.947 2.7-5.558 3.53-6.38 9.338-2.207 14.438 1.842 2.256 4.216 3.843 6.85 4.996l17.603 7.843c.147.08.304.132.463.162l3.717 2.682s-3.7 40.948 3.246 43.781c-.061-.01-.41-.082-.41-.082s.704.761 2.603.537c1.454.27 1.262.226.074-.01 2.583-.334 7.337-2.497 15.578-10.784a47.396 47.396 0 0 0 1.776-1.676l17.8-19.217 4.163 1.465c.15.207.367.34.714.443l19.823 6.031c2.709.836 5.389 1.448 8.277 1.026 5.156-.755 8.951-5 8.9-10.192-.02-2.28-.82-4.339-1.87-6.324l-13.128-24.898c-.418-.787-.405-1.296.196-2l22.054-25.922c1.428-1.703 2.717-3.529 3.465-5.645 1.643-4.67-.482-8.382-5.33-9.289-2.229-.398-4.427-.188-6.6.385l-31.597 8.395c-.93.25-1.39.075-1.895-.772l-12.9-21.434c-.975-1.615-2.14-3.194-3.477-4.527C62.212.89 59.915-.059 57.646.004zm.944 19.736c.51.358.768.727 1.01 1.125l13.88 23.13c.382.628.725.85 1.485.648l24.443-6.497 5.885-1.54c-.087.493-.302.79-.537 1.068l-20.16 23.672c-.57.688-.623 1.17-.194 1.976l12.743 24.16.585 1.237-.015.02-22.727-6.264-.006-.018-4.298-1.205-25.493 28.256 4.663-37.15-4.184-1.82.008-.007-23.674-9.4c.454-.413.86-.585 1.285-.717l28.777-9.096c.676-.21 1.061-.47 1.125-1.242l.403-2.355 3.875-21.807 1.12-6.174z"/></symbol>
  <symbol id="superset" viewBox="-20 -20 210 130">
    <path fill="#484848" d="M125.807 0c-14.517 0-27.89 8.167-40.814 22.437C72.293 7.943 58.696 0 43.506 0C18.354 0 0 17.95 0 42.115c0 24.165 18.354 41.89 43.506 41.89c15.46 0 27.441-7.247 40.814-21.696c12.924 14.494 26.072 21.742 41.487 21.742c25.152-.045 43.506-17.703 43.506-41.936C169.313 17.883 150.959 0 125.807 0ZM43.686 58.651c-10.658 0-17.008-7.022-17.008-16.312c0-9.289 6.35-16.514 17.008-16.514c8.975 0 16.312 7.225 24.255 16.963c-7.495 9.065-15.415 15.863-24.255 15.863Zm81.358 0c-8.84 0-16.312-7.022-24.255-16.312c8.167-9.737 15.19-16.514 24.255-16.514c10.658 0 16.94 7.315 16.94 16.514c0 9.2-6.282 16.312-16.94 16.312Z"/><path fill="#20A7C9" d="m103.257 78.015l16.918-20.194c-6.731-2.02-12.946-8.077-19.386-15.594L84.319 62.31a74.003 74.003 0 0 0 18.938 15.706Zm-18.264-55.6A76.142 76.142 0 0 0 66.168 6.35l-16.94 20.418c6.44 2.244 12.138 8.032 18.197 15.414l.673.472l16.895-20.239Z"/>
  </symbol>
  <symbol id="python" viewBox="0 0 128 128"><linearGradient id="python-original-a" x1="70.3" x2="170.7" y1="1237.5" y2="1151.1" gradientTransform="matrix(.563 0 0 -.568 -29 708)" gradientUnits="userSpaceOnUse"><stop offset="0" stop-color="#5a9fd4"/><stop offset="1" stop-color="#306998"/></linearGradient><linearGradient id="python-original-b" x1="209.5" x2="173.6" y1="1098.8" y2="1149.5" gradientTransform="matrix(.563 0 0 -.568 -29 708)" gradientUnits="userSpaceOnUse"><stop offset="0" stop-color="#ffd43b"/><stop offset="1" stop-color="#ffe873"/></linearGradient><path fill="url(#python-original-a)" d="M63 2 52 3Q37 6 39 16v9h25v3H30q-11 1-15 13t0 25q1 12 13 13h8V67q1-13 16-15h24q12-1 13-13V16Q88 5 76 3zm-13 8q5 0 5 4 0 5-5 5t-5-5q0-3 5-4" transform="translate(0 10)"/><path fill="url(#python-original-b)" d="M92 28v11c0 9-8 16-16 16H52q-12 1-13 13v23q1 10 13 13 11 3 24 0c6-2 13-6 13-13v-9H64v-3h37q10 0 12-13 5-11 0-25-1-12-12-13zM78 88q4 0 4 5 0 3-4 4-5 0-5-4 0-5 5-5" transform="translate(0 10)"/><radialGradient id="python-original-c" cx="1825.7" cy="444.4" r="26.7" gradientTransform="matrix(0 -.24 -1.055 0 533 558)" gradientUnits="userSpaceOnUse"><stop offset="0" stop-color="#b8b8b8" stop-opacity=".5"/><stop offset="1" stop-color="#7f7f7f" stop-opacity="0"/></radialGradient><path fill="url(#python-original-c)" d="M97 120c0 3-15 6-33 6s-33-3-33-6c0-4 15-7 33-7s33 3 33 7" opacity=".4"/></symbol>
  <symbol id="postgres" viewBox="0 0 128 128"><path d="M94 92c1-6 0-7 5-6h1l12-2c6-3 10-8 4-7-14 3-15-1-15-1 15-22 21-50 15-57-14-18-39-9-40-9l-9-1q-9 1-15 4S8-5 10 36c0 9 12 67 27 50l10-12q4 3 9 2h1v2c-4 5-3 5-11 7-7 2-3 4 0 5 4 1 12 2 17-6v1c2 1 2 9 2 14l1 13c2 3 3 10 13 8 8-2 14-4 15-28"/><path d="M75 125q-6 0-8-3l-5-8-2-15v-5l-5 1H45q-4-1-6-4-8 5-11 2-6-2-10-11-4-6-7-17-6-20-6-28Q4 17 15 9c12-8 30-3 37-1q6-4 15-4l9 1 15-2q18 1 29 13c5 7 3 20 1 27q-5 15-13 31l7-1c6-2 8 2 8 3 2 6-6 11-9 12q-5 3-14 3l-1-1v2q-1 18-6 25-6 7-13 8zm-9-43q4 3 4 14v3l1 12q1 6 7 4 6 0 7-3 4-6 4-20h5-5v-2q1-5 4-8t6-1l-3-4v-2l1-2q10-15 14-32 4-18 2-19c-12-15-32-9-35-8l-2 1h-1l-8-1q-7 0-12 3l-2 2-2-1c-6-3-22-7-30-1q-7 5-6 19l5 27q8 22 11 21l2-1 11-12 3-3 3 2 4 1 8-6-1 11v2l1 2-2 2 4 2z"/><path fill="#336791" d="M116 77c-14 3-15-1-15-1 15-22 21-50 15-57-14-18-39-9-40-9l-9-1q-9 1-15 4S8-5 10 36c0 9 12 67 27 50l10-12q4 3 9 2h1v2c-4 5-3 5-11 7-7 2-3 4 0 5 4 1 12 2 17-6v1q3 4 3 14v13c2 3 3 10 13 8q12-3 13-14l1-9 1-3c1-7 0-9 5-8h1l12-2c6-3 10-8 4-7"/><path fill="#fff" d="M76 122c-8 0-11-6-12-9-2-4-2-19-2-31l2-2 2 2c-1 14 0 27 1 30q2 7 12 7 10-2 12-12l3-24 1-1 2 2-3 24q-2 12-14 14zM31 90h-2q-7-2-15-26c-4-11-6-24-6-28q-1-17 9-24c13-10 35-1 36-1l-1 3c-1 0-22-8-33 0q-8 7-8 22c0 3 2 15 6 27q7 22 13 24 2 1 6-2l10-12 2 2-10 12q-3 4-7 3m70-13-2-2c15-23 21-49 16-55Q106 9 91 9l-14 2-2-1 1-2 15-2q17 0 27 12 5 7 0 24-5 19-16 34zm1 10-7-1-1-3q0-8 5-8l-1-1-4-6-1-3c-4-6-11-20-7-27q4-4 14-3c-2-6-11-24-33-25q-10 0-16 6c-9 9-9 26-9 26a2 2 0 1 1-3 0c0-1 0-18 10-28q7-7 18-7 21 2 28 13 8 12 8 16l-1 2h-1q-9-1-12 2c-4 5 3 18 6 23l2 3 3 6 2 3s2 3 13 1q5-1 5 1c1 3-4 7-7 8zm-5-4 6 1 8-2 5-3q-11 2-15-1h-1q-3 0-3 5m-46 9-5-1q-4-1-5-4 2-4 5-4 6-1 7-3l2-3 4-2 3 1q2 1 3 4v5q-5 7-14 7m-7-5 3 1 4 1q7 0 11-6v-2l-2-2-1-1-1 1-2 3q-1 3-9 4zm12-7-1-2q-6 0-11-5-6-7-5-15V42q-1-1 5-4 2-2 8-3 9 0 11 7 3 21-2 25l-1 3v1l-2 7zM42 42l1 1-1 15q0 7 4 13 4 3 9 3l2-4v-1l1-3q4-5 2-23-1-4-5-5c-4-1-11 3-13 4m10 0q0 1 3 2l2-2-2-1zm3 2-3-1v-1l2-2 3 1 1 1zm-2-2 2 1 2-1-2-1zm43-2-2 3q-3 0-3-2l2-1zm-3 3-2-2 2-1 1-1 2 1v2zm1-3zl-2 1 2 1h2l1-2zm4 33-1-3q4-7 2-15V43l1-6a2 2 0 1 1 3-1l-1 7v12q3 8-2 17z"/></symbol>
  <symbol id="flutter" viewBox="0 0 128 128"><g fill="#3FB6D3"><path d="M12.3 64.2L76.3 0h39.4L32.1 83.6zM76.3 128h39.4L81.6 93.9l34.1-34.8H76.3L42.2 93.5z"/></g><path fill="#27AACD" d="M81.6 93.9l-20-20-19.4 19.6 19.4 19.6z"/><path fill="#19599A" d="M115.7 128L81.6 93.9l-20 19.2L76.3 128z"/><linearGradient id="flutter-original-a" gradientUnits="userSpaceOnUse" x1="59.365" y1="116.36" x2="86.825" y2="99.399"><stop offset="0" stop-color="#1b4e94"/><stop offset=".63" stop-color="#1a5497"/><stop offset="1" stop-color="#195a9b"/></linearGradient><path fill="url(#flutter-original-a)" d="M61.6 113.1l30.8-8.4-10.8-10.8z"/></symbol>
  <symbol id="c++" viewBox="0 0 128 128">
    <path fill="#00599c" d="M118.766 95.82c.89-1.543 1.441-3.28 1.441-4.843V36.78c0-1.558-.55-3.297-1.441-4.84l-55.32 31.94Zm0 0"/>
    <path fill="#004482" d="m68.36 126.586 46.933-27.094c1.352-.781 2.582-2.129 3.473-3.672l-55.32-31.94L8.12 95.82c.89 1.543 2.121 2.89 3.473 3.672l46.933 27.094c2.703 1.562 7.13 1.562 9.832 0Zm0 0"/>
    <path fill="#659ad2" d="M118.766 31.941c-.891-1.546-2.121-2.894-3.473-3.671L68.359 1.172c-2.703-1.563-7.129-1.563-9.832 0L11.594 28.27C8.89 29.828 6.68 33.66 6.68 36.78v54.196c0 1.562.55 3.3 1.441 4.843L63.445 63.88Zm0 0"/>
    <path fill="#fff" d="M63.445 26.035c-20.867 0-37.843 16.977-37.843 37.844s16.976 37.844 37.843 37.844c13.465 0 26.024-7.247 32.77-18.91L79.84 73.335c-3.38 5.84-9.66 9.465-16.395 9.465-10.433 0-18.922-8.488-18.922-18.922 0-10.434 8.49-18.922 18.922-18.922 6.73 0 13.017 3.629 16.39 9.465l16.38-9.477c-6.75-11.664-19.305-18.91-32.77-18.91zM92.88 57.57v4.207h-4.207v4.203h4.207v4.207h4.203V65.98h4.203v-4.203h-4.203V57.57H92.88zm15.766 0v4.207h-4.204v4.203h4.204v4.207h4.207V65.98h4.203v-4.203h-4.203V57.57h-4.207z"/>
  </symbol>
  <symbol id="netcore" viewBox="0 0 64 64"><defs><style>.ncorecls-3{fill:#fff}.ncorecls-4{fill:#f2f2f2}</style></defs><circle cx="32" cy="32" r="32" fill="#5c2d91"/><path fill="#fff" d="M9.82 9A32 32 0 1 0 55 54.18Z" opacity=".1"/><path d="M7.4 37.25a1.4 1.4 0 0 1-1-.42 1.4 1.4 0 0 1-.41-1 1.4 1.4 0 0 1 .41-1 1.3 1.3 0 0 1 1-.43 1.4 1.4 0 0 1 1 .43 1.4 1.4 0 0 1 .42 1 1.4 1.4 0 0 1-.42 1 1.4 1.4 0 0 1-1 .42M27.27 37h-2.62l-9.37-14.54a6 6 0 0 1-.58-1.14h-.08a19 19 0 0 1 .1 2.5V37h-2.13V18.77h2.77l9.12 14.28q.57.89.74 1.22h.05a19 19 0 0 1-.13-2.68V18.77h2.13ZM41.69 37H32V18.77h9.24v1.93h-7.06v6.06h6.58v1.92h-6.58V35h7.52ZM56 20.7h-5.3V37h-2.13V20.7h-5.24v-1.93H56Z" class="ncorecls-3"/><path d="M26.12 49.4a5 5 0 0 1-2.32.49 3.7 3.7 0 0 1-2.87-1.15 4.3 4.3 0 0 1-1.08-3 4.5 4.5 0 0 1 1.21-3.26 4.1 4.1 0 0 1 3.08-1.24 5 5 0 0 1 2 .35v1a4 4 0 0 0-2-.5 3 3 0 0 0-2.35 1 3.6 3.6 0 0 0-.9 2.58 3.5 3.5 0 0 0 .84 2.45 2.9 2.9 0 0 0 2.21.91 4 4 0 0 0 2.19-.56ZM30.21 49.89a2.8 2.8 0 0 1-2.13-.89 3 3 0 0 1-.79-2.23 3.2 3.2 0 0 1 .83-2.36 3 3 0 0 1 2.23-.85 2.7 2.7 0 0 1 2.09.83 3.3 3.3 0 0 1 .75 2.29 3.2 3.2 0 0 1-.81 2.3 2.8 2.8 0 0 1-2.17.91m.07-5.47a1.8 1.8 0 0 0-1.46.63 2.6 2.6 0 0 0-.54 1.74 2.5 2.5 0 0 0 .54 1.68 1.9 1.9 0 0 0 1.46.62 1.8 1.8 0 0 0 1.43-.6 2.6 2.6 0 0 0 .5-1.72 2.7 2.7 0 0 0-.5-1.73 1.8 1.8 0 0 0-1.43-.62M37.86 44.72a1.2 1.2 0 0 0-.73-.19 1.2 1.2 0 0 0-1 .58 2.7 2.7 0 0 0-.41 1.58v3.06h-1v-6h1V45a2 2 0 0 1 .63-1 1.4 1.4 0 0 1 .94-.35 2 2 0 0 1 .57.08ZM43.72 47h-4.23a2.2 2.2 0 0 0 .51 1.54 1.9 1.9 0 0 0 1.42.54 3 3 0 0 0 1.86-.67v.9a3.5 3.5 0 0 1-2.09.57 2.5 2.5 0 0 1-2-.82 3.4 3.4 0 0 1-.73-2.3 3.3 3.3 0 0 1 .79-2.28 2.6 2.6 0 0 1 2-.88 2.3 2.3 0 0 1 1.82.76 3.2 3.2 0 0 1 .64 2.12Zm-1-.81a2 2 0 0 0-.4-1.29 1.4 1.4 0 0 0-1.1-.46 1.6 1.6 0 0 0-1.15.49 2.2 2.2 0 0 0-.59 1.27Z" class="ncorecls-4"/></symbol>
  <symbol id="java" viewBox="0 0 512 512" fill="none"><rect width="512" height="512" rx="15%" fill="#ffffff"/><path d="M274 235c18 21-5 40-5 40s47-24 25-54-35-42 48-90C342 130 211 163 274 235M294 53s40 40-38 100c-62 49-14 77 0 109-36-33-63-61-45-88C238 134 310 115 294 53" fill="#f8981d"/><path d="M206 347s-15 8 10 11 46 3 79-3a137 137 0 0 0 21 10C242 397 147 364 206 347m-9-42s-16 12 9 15 58 4 102-5a45 45 0 0 0 16 10C233 351 132 327 197 305m175 73s11 9-12 16c-43 13-179 17-217 1-14-6 15-17 33-17-17-10-98 21-42 30C287 432 412 396 372 378M213 262s-69 16-25 22c19 3 57 2 92-1s57-8 57-8a122 122 0 0 0-17 9c-70 18-206 10-167-9S213 262 213 262m124 69c73-37 39-80 7-66 36-30 101 36-9 68v-2M220 432c69 4 174-2 176-35 0 0-5 12-57 22s-131 10-174 3C166 422 175 429 220 432" fill="#5382a1"/></symbol>
  <symbol id="typescript" viewBox="0 0 128 128"><path fill="#fff" d="M22.67 47h99.67v73.67H22.67z"/><path data-name="original" fill="#007acc" d="M1.5 63.91v62.5h125v-125H1.5zm100.73-5a15.56 15.56 0 017.82 4.5 20.58 20.58 0 013 4c0 .16-5.4 3.81-8.69 5.85-.12.08-.6-.44-1.13-1.23a7.09 7.09 0 00-5.87-3.53c-3.79-.26-6.23 1.73-6.21 5a4.58 4.58 0 00.54 2.34c.83 1.73 2.38 2.76 7.24 4.86 8.95 3.85 12.78 6.39 15.16 10 2.66 4 3.25 10.46 1.45 15.24-2 5.2-6.9 8.73-13.83 9.9a38.32 38.32 0 01-9.52-.1 23 23 0 01-12.72-6.63c-1.15-1.27-3.39-4.58-3.25-4.82a9.34 9.34 0 011.15-.73L82 101l3.59-2.08.75 1.11a16.78 16.78 0 004.74 4.54c4 2.1 9.46 1.81 12.16-.62a5.43 5.43 0 00.69-6.92c-1-1.39-3-2.56-8.59-5-6.45-2.78-9.23-4.5-11.77-7.24a16.48 16.48 0 01-3.43-6.25 25 25 0 01-.22-8c1.33-6.23 6-10.58 12.82-11.87a31.66 31.66 0 019.49.26zm-29.34 5.24v5.12H56.66v46.23H45.15V69.26H28.88v-5a49.19 49.19 0 01.12-5.17C29.08 59 39 59 51 59h21.83z"/></symbol>
  <symbol id="vue" viewBox="0 0 128 128"><path d="M0 8.934l49.854.158 14.167 24.47 14.432-24.47L128 8.935l-63.834 110.14zm126.98.637l-24.36.02-38.476 66.053L25.691 9.592.942 9.572l63.211 107.89zm-25.149-.008l-22.745.168-15.053 24.647L49.216 9.73l-22.794-.168 37.731 64.476zm-75.834-.17l23.002.009m-23.002-.01l23.002.01" fill="none"/><path d="M25.997 9.393l23.002.009L64.035 34.36 79.018 9.404 102 9.398 64.15 75.053z" fill="#35495e"/><path d="M.91 9.569l25.067-.172 38.15 65.659L101.98 9.401l25.11.026-62.966 108.06z" fill="#41b883"/></symbol>
  <symbol id="aws" viewBox="0 0 128 128"><path fill="currentColor" d="m36 54 1 3 1 3v3l-3 1-1 1-1-1-2-2-1-2q-5 6-13 6-5 0-8-3t-3-9 4-8 10-4l9 2v-3q0-6-2-7l-6-2-5 1-5 1-2 1-1-2v-2l1-1 1-1 5-2 7-1q7 0 11 4 3 3 3 10zm-17 6 5-1 4-2 1-3v-6h-3l-4-1-7 2-2 5 2 4q1 3 4 2m34 5-2-1v-1L41 30l-1-2 1-1h4l2 1 1 1 7 28 7-28v-1l2-1h3l2 1 1 1 7 29 7-29 1-1 1-1h4l1 1v2L81 63l-1 1-2 1h-3l-2-1-1-1-6-28-7 27-1 2-1 1Zm54 1-11-3-1-1-1-1v-2l1-2 1 1h1l5 1 5 1 6-1 2-4-1-3-4-3-6-1q-5-2-7-5a10 10 0 0 1-1-10l3-4 4-2 8-1 3 1 4 1 2 1v4l-1 1-2-1-8-1-5 1q-2 1-2 4l1 3 5 2 6 2q4 1 6 4l2 6-1 5-3 3q-2 2-5 3zm0 0"/><path fill="#f90" d="M118 73q-7 0-14 4-2 2 1 2c4 0 14-2 16 1 2 2-2 11-4 15q0 3 2 1c7-6 9-19 8-21zM2 76q-2 0-1 2a93 93 0 0 0 114 8q2-3-2-3A125 125 0 0 1 2 76"/></symbol>
  <symbol viewBox="0 0 128 128" id="azure"><defs><linearGradient id="azure-original-a" x1="60.919" y1="9.602" x2="18.667" y2="134.423" gradientUnits="userSpaceOnUse"><stop stop-color="#114A8B"/><stop offset="1" stop-color="#0669BC"/></linearGradient><linearGradient id="azure-original-b" x1="74.117" y1="67.772" x2="64.344" y2="71.076" gradientUnits="userSpaceOnUse"><stop stop-opacity=".3"/><stop offset=".071" stop-opacity=".2"/><stop offset=".321" stop-opacity=".1"/><stop offset=".623" stop-opacity=".05"/><stop offset="1" stop-opacity="0"/></linearGradient><linearGradient id="azure-original-c" x1="68.742" y1="5.961" x2="115.122" y2="129.525" gradientUnits="userSpaceOnUse"><stop stop-color="#3CCBF4"/><stop offset="1" stop-color="#2892DF"/></linearGradient></defs><path d="M46.09.002h40.685L44.541 125.137a6.485 6.485 0 01-6.146 4.413H6.733a6.482 6.482 0 01-5.262-2.699 6.474 6.474 0 01-.876-5.848L39.944 4.414A6.488 6.488 0 0146.09 0z" fill="url(#azure-original-a)" transform="translate(.587 4.468) scale(.91904)"/><path d="M97.28 81.607H37.987a2.743 2.743 0 00-1.874 4.751l38.1 35.562a5.991 5.991 0 004.087 1.61h33.574z" fill="#0078d4"/><path d="M46.09.002A6.434 6.434 0 0039.93 4.5L.644 120.897a6.469 6.469 0 006.106 8.653h32.48a6.942 6.942 0 005.328-4.531l7.834-23.089 27.985 26.101a6.618 6.618 0 004.165 1.519h36.396l-15.963-45.616-46.533.011L86.922.002z" fill="url(#azure-original-b)" transform="translate(.587 4.468) scale(.91904)"/><path d="M98.055 4.408A6.476 6.476 0 0091.917.002H46.575a6.478 6.478 0 016.137 4.406l39.35 116.594a6.476 6.476 0 01-6.137 8.55h45.344a6.48 6.48 0 006.136-8.55z" fill="url(#azure-original-c)" transform="translate(.587 4.468) scale(.91904)"/></symbol>
  <symbol id="heroku" viewBox="0 0 128 128"><path d="M114 13.9C114 7.3 108.7 2 102.1 2H25.9C19.3 2 14 7.3 14 13.9v100.3c0 6.6 5.3 11.9 11.9 11.9h76.3c6.6 0 11.9-5.3 11.9-11.9V13.9zm-4 .1v99.3c0 4.7-3.5 8.7-8.2 8.7H26.5c-4.7 0-8.5-4-8.5-8.7V14c0-4.7 3.9-8 8.5-8h75.2c4.7 0 8.4 3.6 8.4 8.3l-.1-.3zm-73 94.7l14.1-14.1L37 80.5zm14-60.9V18.4l-13.9.1s.1 45.9.2 45.7C80.1 47.5 77 59.4 77 59.4v49.4l-.1.2H90V59.5c0-27.1-39-11.7-39-11.7zM70 36h14.8c8-10 10.7-17 10.7-17H80.2S75.3 30 70 36z" fill="currentColor"/></symbol>
  <symbol id="docker" viewBox="0 0 340 268"><defs><clipPath id="docka"><path d="M0 0h340v268H0z" style="fill:none"/></clipPath></defs><g style="clip-path:url(#docka)"><path d="M334 110c-8-6-30-8-46-4q-1-23-24-40l-6-4-3 5q-12 18-10 39 1 14 10 25c-21 12-40 9-125 9H0a137 137 0 0 0 35 95c19 19 47 33 90 33 65 0 121-35 156-121 11 1 40 2 55-26l4-7zM85 93H48v36h37zm48 0H96v36h37zm47 0h-37v36h37zm47 0h-36v36h36zM38 93H1v36h37zm47-47H49v37h36zm48 0H96v37h37zm47 0h-37v37h37zm0-46h-37v37h37z" style="fill:#2560ff"/></g></symbol>
  <symbol id="firebase" viewBox="0 0 128 128"><path fill="#f58220" d="M27.35 80.52l10.68-68.44c.37-2.33 3.5-2.89 4.6-.8l11.48 21.48-26.76 47.76zm75.94 16.63L93.1 34.11c-.31-1.96-2.76-2.76-4.17-1.35L24.71 97.15l35.54 19.95a7.447 7.447 0 007.18 0l35.86-19.95zm-28.85-55L66.21 26.5c-.92-1.78-3.44-1.78-4.36 0L25.7 90.95l48.74-48.8z"/></symbol>
  <symbol id="googlecloud" viewBox="0 0 128 128"><path fill="#ea4535" d="M80.6 40.3h.4l-.2-.2 14-14v-.3c-11.8-10.4-28.1-14-43.2-9.5C36.5 20.8 24.9 32.8 20.7 48c.2-.1.5-.2.8-.2 5.2-3.4 11.4-5.4 17.9-5.4 2.2 0 4.3.2 6.4.6.1-.1.2-.1.3-.1 9-9.9 24.2-11.1 34.6-2.6h-.1z"/><path fill="#557ebf" d="M108.1 47.8c-2.3-8.5-7.1-16.2-13.8-22.1L80 39.9c6 4.9 9.5 12.3 9.3 20v2.5c16.9 0 16.9 25.2 0 25.2H63.9v20h-.1l.1.2h25.4c14.6.1 27.5-9.3 31.8-23.1 4.3-13.8-1-28.8-13-36.9z"/><path fill="#36a852" d="M39 107.9h26.3V87.7H39c-1.9 0-3.7-.4-5.4-1.1l-15.2 14.6v.2c6 4.3 13.2 6.6 20.7 6.6z"/><path fill="#f9bc15" d="M40.2 41.9c-14.9.1-28.1 9.3-32.9 22.8-4.8 13.6 0 28.5 11.8 37.3l15.6-14.9c-8.6-3.7-10.6-14.5-4-20.8 6.6-6.4 17.8-4.4 21.7 3.8L68 55.2C61.4 46.9 51.1 42 40.2 42.1z"/></symbol>
  <symbol id="kubernetes" viewBox="0 0 722.8 702"><path fill="#326ce5" d="m359 10-18 4L97 131a47 46 0 0 0-25 32L12 425a47 46 0 0 0 6 35l3 4 169 210a47 46 0 0 0 36 18h271a47 46 0 0 0 37-18l169-210a47 46 0 0 0 9-39l-60-263a47 46 0 0 0-26-31L382 14a47 46 0 0 0-23-4"/><path fill="#fff" d="M362 99q-13 1-15 16v4l2 14 2 27q-2 5-5 7v7a190 190 0 0 0-122 58l-6-3q-3 1-8-1l-20-18-10-10-3-3-10-4q-7 0-12 5-7 12 4 22l3 3 12 7 22 15q3 5 3 8l5 5c-26 37-37 84-30 131l-6 2-7 7-26 4-14 1-4 1q-14 5-13 18c2 8 11 12 19 11h1v-1h4l13-5q13-6 25-8l9 3 6-1q24 69 84 105l-2 7q2 3 1 8l-13 24-8 11-2 4c-4 8-1 18 6 21q14 5 20-8l2-4 5-13q4-16 11-27l6-3 3-6a189 189 0 0 0 135 1l4 5 7 5 10 24 4 14 2 4q8 12 20 8 12-7 7-21l-2-4-8-12q-9-11-13-23-1-5 1-8l-2-6c40-24 70-62 84-106l6 1q2-4 8-3l26 7 13 5 4 1q15 2 19-10 1-14-12-18l-5-1-14-1q-15-1-26-5-5-3-6-6l-6-2a189 189 0 0 0-31-131l6-5 2-8q9-8 22-16l12-7 4-2c7-6 8-16 3-22s-15-7-22-1l-3 2-10 11q-10 11-19 17-5 3-9 1l-6 4c-31-33-75-54-121-58v-7q-4-2-5-7-1-11 1-27l2-14v-4q-1-15-14-16m-19 113-4 77a13 13 0 0 1-21 10l-63-44a151 151 0 0 1 88-43m37 0q51 8 88 43l-63 44a13 13 0 0 1-21-10zm-148 71 58 52a13 13 0 0 1-5 22l-74 22q-5-53 21-96m259 0a153 153 0 0 1 22 95l-74-21a13 13 0 0 1-5-22h-1zm-141 56h23l15 18-5 23-21 10-21-10-6-23zm75 62h3l77 13q-18 49-61 77l-30-72a13 13 0 0 1 11-18m-128 1a13 13 0 0 1 12 18l-29 71q-42-27-61-77l76-12zm64 31q3-1 6 1 5 2 6 5l38 68a154 154 0 0 1-98-1l37-67q5-6 11-6"/></symbol>
  <symbol id="cloudflare" viewBox="0 0 128 128"><path fill="#FFF" d="m115.679 69.288-15.591-8.94-2.689-1.163-63.781.436v32.381h82.061z"/><path fill="#F38020" d="M87.295 89.022c.763-2.617.472-5.015-.8-6.796-1.163-1.635-3.125-2.58-5.488-2.689l-44.737-.581c-.291 0-.545-.145-.691-.363s-.182-.509-.109-.8c.145-.436.581-.763 1.054-.8l45.137-.581c5.342-.254 11.157-4.579 13.192-9.885l2.58-6.723c.109-.291.145-.581.073-.872-2.906-13.158-14.644-22.97-28.672-22.97-12.938 0-23.913 8.359-27.838 19.952a13.35 13.35 0 0 0-9.267-2.58c-6.215.618-11.193 5.597-11.811 11.811-.145 1.599-.036 3.162.327 4.615C10.104 70.051 2 78.337 2 88.549c0 .909.073 1.817.182 2.726a.895.895 0 0 0 .872.763h82.57c.472 0 .909-.327 1.054-.8l.617-2.216z"/><path fill="#FAAE40" d="M101.542 60.275c-.4 0-.836 0-1.236.036-.291 0-.545.218-.654.509l-1.744 6.069c-.763 2.617-.472 5.015.8 6.796 1.163 1.635 3.125 2.58 5.488 2.689l9.522.581c.291 0 .545.145.691.363.145.218.182.545.109.8-.145.436-.581.763-1.054.8l-9.924.582c-5.379.254-11.157 4.579-13.192 9.885l-.727 1.853c-.145.363.109.727.509.727h34.089c.4 0 .763-.254.872-.654.581-2.108.909-4.325.909-6.614 0-13.447-10.975-24.422-24.458-24.422"/></symbol>
  <symbol id="sqlserver" fill="none" viewBox="0 0 48 48"><g clip-path="url(#clip0_8666_6627)"><g clip-path="url(#clip1_8666_6627)"><mask id="mask0_8666_6627" width="48" height="48" x="0" y="0" maskUnits="userSpaceOnUse" style="mask-type:luminance"><path fill="#fff" d="M48 0H0v48h48z"/></mask><g mask="url(#mask0_8666_6627)"><path fill="url(#paint0_linear_8666_6627)" d="M24 33.6c10.6 0 19.2 3.2 19.2 7.2V26.4c0-4-8.6-7.2-19.2-7.2h-4.8v14.4z"/><path fill="url(#paint1_radial_8666_6627)" d="M43.2 26.4c0 4-8.6 7.2-19.2 7.2-6.5 0-12.2-1.2-15.7-3-1.9-.9-3.5.4-3.5 2.1v8.1c0 4 8.6 7.2 19.2 7.2s19.2-3.2 19.2-7.2z"/><path fill="url(#paint2_radial_8666_6627)" d="M43.2 26.4c0 4-8.6 7.2-19.2 7.2-6.5 0-12.2-1.2-15.7-3-1.9-.9-3.5.4-3.5 2.1v8.1c0 4 8.6 7.2 19.2 7.2s19.2-3.2 19.2-7.2z"/><path fill="url(#paint3_linear_8666_6627)" d="M24 0c10.6 0 19.2 3.2 19.2 7.2v8.2c0 1-1.2 3-3.5 2-3.5-1.8-9.2-3-15.7-3-10.6 0-19.2 3.2-19.2 7.2V7.2C4.8 3.2 13.4 0 24 0"/><path fill="url(#paint4_radial_8666_6627)" d="M24 14.4c-10.6 0-19.2-3.2-19.2-7.2v14.4c0 4 8.6 7.2 19.2 7.2h1.2c2 0 3.6-1.6 3.6-3.6V18c0-2-1.6-3.6-3.6-3.6z"/><path fill="url(#paint5_radial_8666_6627)" d="M24 14.4c-10.6 0-19.2-3.2-19.2-7.2v14.4c0 4 8.6 7.2 19.2 7.2h1.2c2 0 3.6-1.6 3.6-3.6V18c0-2-1.6-3.6-3.6-3.6z"/></g></g></g><defs><radialGradient id="paint1_radial_8666_6627" cx="0" cy="0" r="1" gradientTransform="rotate(143.6 12 20.3)scale(29.8211 53.0152)" gradientUnits="userSpaceOnUse"><stop stop-color="#3bd5ff"/><stop offset="1" stop-color="#0078d4"/></radialGradient><radialGradient id="paint2_radial_8666_6627" cx="0" cy="0" r="1" gradientTransform="rotate(146.3 15.6 19.8)scale(25.96 43.796)" gradientUnits="userSpaceOnUse"><stop stop-color="#decbff" stop-opacity=".9"/><stop offset="1" stop-color="#decbff" stop-opacity="0"/></radialGradient><radialGradient id="paint4_radial_8666_6627" cx="0" cy="0" r="1" gradientTransform="rotate(137.5 9.5 10.7)scale(24.6606 38.4117)" gradientUnits="userSpaceOnUse"><stop stop-color="#3bd5ff"/><stop offset="1" stop-color="#0078d4"/></radialGradient><radialGradient id="paint5_radial_8666_6627" cx="0" cy="0" r="1" gradientTransform="rotate(149 12.3 9.2)scale(20.9914 33.6005)" gradientUnits="userSpaceOnUse"><stop stop-color="#decbff" stop-opacity=".9"/><stop offset="1" stop-color="#d1d1ff" stop-opacity="0"/></radialGradient><linearGradient id="paint0_linear_8666_6627" x1="36" x2="15.9" y1="19.2" y2="35.8" gradientUnits="userSpaceOnUse"><stop stop-color="#0094f0"/><stop offset=".2" stop-color="#0078d4"/><stop offset=".6" stop-color="#2052cb"/><stop offset=".8" stop-color="#312a9a"/></linearGradient><linearGradient id="paint3_linear_8666_6627" x1="32.4" x2="9.7" y1="1.2" y2="25.9" gradientUnits="userSpaceOnUse"><stop stop-color="#0fafff"/><stop offset=".2" stop-color="#0094f0"/><stop offset=".6" stop-color="#2052cb"/><stop offset=".8" stop-color="#312a9a"/></linearGradient><clipPath id="clip0_8666_6627"><path fill="#fff" d="M0 12.8c0-4.5 0-6.7.9-8.4A8 8 0 0 1 4.4.9C6 0 8.4 0 12.8 0h22.4c4.5 0 6.7 0 8.4.9a8 8 0 0 1 3.5 3.5c.9 1.7.9 4 .9 8.4v22.4c0 4.5 0 6.7-.9 8.4a8 8 0 0 1-3.5 3.5c-1.7.9-4 .9-8.4.9H12.8c-4.5 0-6.7 0-8.4-.9a8 8 0 0 1-3.5-3.5C0 42 0 39.6 0 35.2z"/></clipPath><clipPath id="clip1_8666_6627"><path fill="#fff" d="M0 0h48v48H0z"/></clipPath></defs></symbol>
  <symbol id="document" viewBox="0 0 24 24" fill="none" stroke="currentColor" stroke-width="1.5" stroke-linecap="round" stroke-linejoin="round">
    <path d="M19.5 14.25v-2.625a3.375 3.375 0 00-3.375-3.375h-1.5A1.125 1.125 0 0113.5 7.125v-1.5a3.375 3.375 0 00-3.375-3.375H8.25m0 12.75h7.5m-7.5 3H12M10.5 2.25H5.625c-.621 0-1.125.504-1.125 1.125v17.25c0 .621.504 1.125 1.125 1.125h12.75c.621 0 1.125-.504 1.125-1.125V11.25a9 9 0 00-9-9z" />
  </symbol>
  <symbol id="pdf" viewBox="0 0 75.32 92.6"><path fill="#ff2116" d="M-29.63 123.95a6.45 6.45 0 0 0-6.45 6.44v49.5c0 3.55 2.9 6.45 6.45 6.45H8.22c3.55 0 6.44-2.9 6.44-6.45v-40.7s.1-1.2-.42-2.35a7 7 0 0 0-1.27-1.85l-9.4-9.21-.01-.02s-.8-.76-2-1.27c-1.4-.6-2.84-.54-2.84-.54h.03z" color="#000" font-family="sans-serif" overflow="visible" paint-order="markers fill stroke" style="line-height:normal;font-variant-ligatures:normal;font-variant-position:normal;font-variant-caps:normal;font-variant-numeric:normal;font-variant-alternates:normal;font-feature-settings:normal;text-indent:0;text-align:start;text-decoration-line:none;text-decoration-style:solid;text-decoration-color:#000;text-transform:none;text-orientation:mixed;white-space:normal;shape-padding:0;isolation:auto;mix-blend-mode:normal;solid-color:#000;solid-opacity:1" transform="translate(53.55 -183.98)scale(1.4843)"/><path fill="#f5f5f5" d="M-29.63 126.06h28.4s1.13.02 1.96.37a5 5 0 0 1 1.38.87l9.36 9.19s.57.6.84 1.2c.22.5.23 1.41.23 1.41v40.79a4.3 4.3 0 0 1-4.32 4.33h-37.85a4.3 4.3 0 0 1-4.33-4.33v-49.5a4.3 4.3 0 0 1 4.33-4.33" color="#000" font-family="sans-serif" overflow="visible" paint-order="markers fill stroke" style="line-height:normal;font-variant-ligatures:normal;font-variant-position:normal;font-variant-caps:normal;font-variant-numeric:normal;font-variant-alternates:normal;font-feature-settings:normal;text-indent:0;text-align:start;text-decoration-line:none;text-decoration-style:solid;text-decoration-color:#000;text-transform:none;text-orientation:mixed;white-space:normal;shape-padding:0;isolation:auto;mix-blend-mode:normal;solid-color:#000;solid-opacity:1" transform="translate(53.55 -183.98)scale(1.4843)"/><path fill="#ff2116" d="M18.8 55.14c-2.16-2.17.18-5.14 6.53-8.3l4-1.98 1.55-3.4c.86-1.88 2.13-4.93 2.84-6.8L35 31.29l-.88-2.5c-1.09-3.09-1.48-7.71-.79-9.38.94-2.25 4-2.02 5.2.4.95 1.88.86 5.3-.26 9.61l-.92 3.54.8 1.37c.45.76 1.75 2.55 2.9 3.99l2.15 2.68 2.67-.35c8.5-1.11 11.42.77 11.42 3.48 0 3.4-6.68 3.7-12.28-.25-1.27-.88-2.13-1.76-2.13-1.76s-3.51.71-5.24 1.18c-1.79.48-2.68.78-5.3 1.66 0 0-.91 1.34-1.51 2.3-2.22 3.6-4.82 6.6-6.68 7.68-2.07 1.22-4.25 1.3-5.35.2m3.4-1.22c1.21-.75 3.67-3.66 5.38-6.36l.68-1.1-3.13 1.59c-4.85 2.43-7.07 4.73-5.92 6.12.65.78 1.43.72 2.99-.25m31.5-8.84c1.18-.83 1-2.5-.34-3.18-1.04-.53-1.89-.64-4.6-.6-1.67.11-4.36.45-4.81.55 0 0 1.47 1.02 2.13 1.4.87.5 2.99 1.42 4.53 1.9 1.53.46 2.41.41 3.08-.07m-12.67-5.26a31 31 0 0 1-2.72-3.5c-1.02-1.34-1.52-2.28-1.52-2.28s-.75 2.39-1.35 3.82l-1.9 4.7-.55 1.06s2.92-.96 4.41-1.35c1.58-.41 4.78-1.04 4.78-1.04zm-4.08-16.37c.18-1.54.26-3.07-.24-3.85-1.37-1.5-3.03-.25-2.74 3.32.09 1.2.39 3.25.79 4.51l.72 2.3L36 28c.28-.95.71-3 .96-4.55"/><path fill="#2c2c2c" d="M-20.93 167.84h2.36q1.14 0 1.84.22.71.2 1.2.94.48.73.48 1.76 0 .94-.4 1.62-.39.68-1.05.98t-2.03.3h-.82v3.73h-1.58zm1.58 1.22v3.33h.78q1.05 0 1.45-.39t.4-1.27q0-.66-.26-1.07-.26-.4-.58-.5t-1-.1zm5.5-1.22h2.16q1.56 0 2.49.55t1.41 1.65.48 2.42q0 1.4-.43 2.5-.43 1.09-1.32 1.76-.88.67-2.52.67h-2.26zm1.59 1.27v7.01h.66q1.37 0 2-.95.62-.96.62-2.55 0-3.51-2.62-3.51zm6.47-1.27h5.3v1.27H-4.2v2.85h2.98v1.27H-4.2v4.16h-1.58z" font-family="Franklin Gothic Medium Cond" letter-spacing="0" style="line-height:125%;-inkscape-font-specification:&quot;Franklin Gothic Medium Cond&quot;" transform="translate(53.55 -183.98)scale(1.4843)" word-spacing="4.26"/></symbol>
  <symbol id="x" viewBox="0 0 24 24" fill="none"><g stroke="currentColor" stroke-width="3" stroke-linecap="round">
  <path d="M23 1L1 23"/>
  <path d="M23 12L1 12"/>
  <path d="M23 23L1 1"/></g></symbol>
  <symbol id="menu" viewBox="0 0 24 24" fill="none"><g stroke="currentColor" stroke-width="4" stroke-linecap="round">
  <path d="M22 2L2 2"/>
  <path d="M22 12L2 12"/>
  <path d="M22 22L2 22"/></g></symbol>
</svg>
