<svg xmlns="http://www.w3.org/2000/svg" xmlns:xlink="http://www.w3.org/1999/xlink" style="display:none">
  <!-- Node Icon -->
  <symbol id="node" viewBox="0 0 256 292">
    <defs>
      <linearGradient id="a" x1="68.188%" x2="27.823%" y1="17.487%" y2="89.755%"><stop offset="0%" stop-color="#41873F"/><stop offset="32.88%" stop-color="#418B3D"/><stop offset="63.52%" stop-color="#419637"/><stop offset="93.19%" stop-color="#3FA92D"/><stop offset="100%" stop-color="#3FAE2A"/></linearGradient>
      <linearGradient id="c" x1="43.277%" x2="159.245%" y1="55.169%" y2="-18.306%"><stop offset="13.76%" stop-color="#41873F"/><stop offset="40.32%" stop-color="#54A044"/><stop offset="71.36%" stop-color="#66B848"/><stop offset="90.81%" stop-color="#6CC04A"/></linearGradient>
      <linearGradient id="f" x1="-4.389%" x2="101.499%" y1="49.997%" y2="49.997%"><stop offset="9.192%" stop-color="#6CC04A"/><stop offset="28.64%" stop-color="#66B848"/><stop offset="59.68%" stop-color="#54A044"/><stop offset="86.24%" stop-color="#41873F"/></linearGradient>
      <path id="b" d="M134.923 1.832c-4.344-2.443-9.502-2.443-13.846 0L6.787 67.801C2.443 70.244 0 74.859 0 79.745v132.208c0 4.887 2.715 9.502 6.787 11.945l114.29 65.968c4.344 2.444 9.502 2.444 13.846 0l114.29-65.968c4.344-2.443 6.787-7.058 6.787-11.945V79.745c0-4.886-2.715-9.501-6.787-11.944L134.923 1.832Z"/>
      <path id="e" d="M134.923 1.832c-4.344-2.443-9.502-2.443-13.846 0L6.787 67.801C2.443 70.244 0 74.859 0 79.745v132.208c0 4.887 2.715 9.502 6.787 11.945l114.29 65.968c4.344 2.444 9.502 2.444 13.846 0l114.29-65.968c4.344-2.443 6.787-7.058 6.787-11.945V79.745c0-4.886-2.715-9.501-6.787-11.944L134.923 1.832Z"/>
    </defs>
    <path fill="url(#a)" d="M134.923 1.832c-4.344-2.443-9.502-2.443-13.846 0L6.787 67.801C2.443 70.244 0 74.859 0 79.745v132.208c0 4.887 2.715 9.502 6.787 11.945l114.29 65.968c4.344 2.444 9.502 2.444 13.846 0l114.29-65.968c4.344-2.443 6.787-7.058 6.787-11.945V79.745c0-4.886-2.715-9.501-6.787-11.944L134.923 1.832Z"/>
    <mask id="d" fill="#fff"><use xlink:href="#b"/></mask>
    <path fill="url(#c)" d="M249.485 67.8 134.65 1.833c-1.086-.542-2.443-1.085-3.529-1.357L2.443 220.912c1.086 1.357 2.444 2.443 3.8 3.258l114.834 65.968c3.258 1.9 7.059 2.443 10.588 1.357L252.47 70.515c-.815-1.086-1.9-1.9-2.986-2.714Z" mask="url(#d)"/>
    <mask id="g" fill="#fff"><use xlink:href="#e"/></mask>
    <path fill="url(#f)" d="M249.756 223.898c3.258-1.9 5.701-5.158 6.787-8.687L130.579.204c-3.258-.543-6.787-.272-9.773 1.628L6.786 67.53l122.979 224.238c1.628-.272 3.529-.815 5.158-1.63l114.833-66.239Z" mask="url(#g)"/>
  </symbol>
  <!-- X (Twitter) Icon -->
  <symbol id="x" viewBox="0 0 1200 1227">
    <path fill="currentColor" d="M714.163 519.284 1160.89 0h-105.86L667.137 450.887 357.328 0H0l468.492 681.821L0 1226.37h105.866l409.625-476.152 327.181 476.152H1200L714.137 519.284h.026ZM569.165 687.828l-47.468-67.894-377.686-540.24h162.604l304.797 435.991 47.468 67.894 396.2 566.721H892.476L569.165 687.854v-.026Z"/>
  </symbol>
  <!-- LinkedIn Icon -->
  <symbol id="linkedin" viewBox="0 0 256 256">
    <path d="M218.123 218.127h-37.931v-59.403c0-14.165-.253-32.4-19.728-32.4-19.756 0-22.779 15.434-22.779 31.369v60.43h-37.93V95.967h36.413v16.694h.51a39.907 39.907 0 0 1 35.928-19.733c38.445 0 45.533 25.288 45.533 58.186l-.016 67.013ZM56.955 79.27c-12.157.002-22.014-9.852-22.016-22.009-.002-12.157 9.851-22.014 22.008-22.016 12.157-.003 22.014 9.851 22.016 22.008A22.013 22.013 0 0 1 56.955 79.27m18.966 138.858H37.95V95.967h37.97v122.16ZM237.033.018H18.89C8.58-.098.125 8.161-.001 18.471v219.053c.122 10.315 8.576 18.582 18.89 18.474h218.144c10.336.128 18.823-8.139 18.966-18.474V18.454c-.147-10.33-8.635-18.588-18.966-18.453" fill="#0A66C2"/>
  </symbol>
  <!-- GitHub Icon -->
  <symbol id="github" viewBox="0 0 1024 1024">
    <path fill-rule="evenodd" clip-rule="evenodd" d="M8 0C3.58 0 0 3.58 0 8C0 11.54 2.29 14.53 5.47 15.59C5.87 15.66 6.02 15.42 6.02 15.21C6.02 15.02 6.01 14.39 6.01 13.72C4 14.09 3.48 13.23 3.32 12.78C3.23 12.55 2.84 11.84 2.5 11.65C2.22 11.5 1.82 11.13 2.49 11.12C3.12 11.11 3.57 11.7 3.72 11.94C4.44 13.15 5.59 12.81 6.05 12.6C6.12 12.08 6.33 11.73 6.56 11.53C4.78 11.33 2.92 10.64 2.92 7.58C2.92 6.71 3.23 5.99 3.74 5.43C3.66 5.23 3.38 4.41 3.82 3.31C3.82 3.31 4.49 3.1 6.02 4.13C6.66 3.95 7.34 3.86 8.02 3.86C8.7 3.86 9.38 3.95 10.02 4.13C11.55 3.09 12.22 3.31 12.22 3.31C12.66 4.41 12.38 5.23 12.3 5.43C12.81 5.99 13.12 6.7 13.12 7.58C13.12 10.65 11.25 11.33 9.47 11.53C9.76 11.78 10.01 12.26 10.01 13.01C10.01 14.08 10 14.94 10 15.21C10 15.42 10.15 15.67 10.55 15.59C13.71 14.53 16 11.53 16 8C16 3.58 12.42 0 8 0Z" transform="scale(64)" fill="currentColor"/>
  </symbol>
  <!-- Strava Icon -->
  <symbol id="strava" width="512" height="512" style="enable-background:new 0 0 512 512"><path d="M226.172 26.001 90.149 288.345h80.141l55.882-104.309 55.433 104.309h79.511z" style="fill:#f50"/><path d="m361.116 288.345-39.441 79.241-40.07-79.241h-60.734l100.804 197.654 100.176-197.654z" style="fill:#ffaf8a"/></symbol>
  <!-- Verified Icon -->
  <symbol id="verified" viewBox="0 0 20 20">
    <path fill-rule="evenodd" d="M10 18a8 8 0 100-16 8 8 0 000 16zm3.707-8.707a1 1 0 00-1.414-1.414L9 11.172l-1.293-1.293a1 1 0 00-1.414 1.414l2 2a1 1 0 001.414 0l4-4z" clip-rule="evenodd" />
  </symbol>
  <!-- Mail Icon -->  
  <symbol id="mail" viewBox="0 0 122.88 88.86"><title>email</title><path d="M7.05,0H115.83a7.07,7.07,0,0,1,7,7.05V81.81a7,7,0,0,1-1.22,4,2.78,2.78,0,0,1-.66,1,2.62,2.62,0,0,1-.66.46,7,7,0,0,1-4.51,1.65H7.05a7.07,7.07,0,0,1-7-7V7.05A7.07,7.07,0,0,1,7.05,0Zm-.3,78.84L43.53,40.62,6.75,9.54v69.3ZM49.07,45.39,9.77,83.45h103L75.22,45.39l-11,9.21h0a2.7,2.7,0,0,1-3.45,0L49.07,45.39Zm31.6-4.84,35.46,38.6V9.2L80.67,40.55ZM10.21,5.41,62.39,47.7,112.27,5.41Z"/></symbol>
  <!-- UCR Icon -->
  <symbol id="ucr" viewBox="0 0 383.24 158.23">
    <g fill="currentColor">
      <path d="M309.41,57.02c14.82,20.22,29.28,39.96,44.24,60.38-6.61,0-13.81.42-20.9-.27-2.01-.19-4.05-3.36-5.49-5.55-9.18-13.91-17.94-28.1-27.44-41.79-2.87-4.14-7.63-6.97-12.71-11.45.1-.43.64-2.86,1.15-5.17,21.55-2.82,29.52-11.01,26.76-27.17-2.14-12.53-14.06-17.79-32.04-14v104.12h-18.66c.47-6.02,1.27-11.79,1.3-17.56.17-25.62.1-51.24.17-76.85.02-6.83-1.52-12.31-9.92-12.07.66-5.61,3.44-6.99,8.71-6.85,14.33.39,28.69-.28,43.02.04,11.92.27,19.67,5.9,22.88,15.45,3.7,11.02.6,22.87-8.21,29.98-3.63,2.93-7.72,5.29-12.87,8.76Z"/>
      <path d="M381.91,158.04c-126.95-11.66-253.9-10.6-380.84.19-.35-.74-.71-1.48-1.06-2.22,1.84-1.19,3.57-3.17,5.54-3.46,22.54-3.37,45.03-7.65,67.71-9.41,41.68-3.25,83.48-6.68,125.24-6.93,59.98-.37,119.76,4.38,178.76,16.21,2.11.42,4,1.96,5.99,2.98-.44.88-.89,1.77-1.33,2.65Z"/>
      <path d="M28.11,9.2c1.47-1.9,2.94-3.8,4.41-5.7.96-.26,1.92-.52,2.88-.77,6.33-.06,12.65-.12,18.98-.19.03,14.24,0,25.62,0,33.48,0,11,0,21.88,0,32.77,0,2.82-.04,5.64.04,8.45.37,12.53,3.96,23.4,16.79,28.32,14.33,5.49,28.67,4.99,40.38-5.46,4.55-4.06,7.8-11.58,8.31-17.79,2.15-26.17,2.89-52.44-1.02-79.01h16.27c-.49,25.48-.18,51.01-1.72,76.43-1.45,24.02-13.46,35.65-37.36,39.28-12.82,1.95-25.27.82-37.24-4.51-11.56-5.14-18.51-14.02-19.25-26.47-.91-15.43-.54-30.93-.77-46.39-.11-7.04-.36-14.07-.5-21.11-.13-6.37-1.81-11.37-10.2-11.32Z"/>
      <path d="M243.41,98.12c-1.56,15.09-3.35,18.03-15.82,18.85-13.01.86-26.67,2.03-39.14-.84-38.29-8.82-54.19-59.26-29.96-91.79,11-14.76,26.21-21.73,43.99-23.64,14.37-1.54,28.61-.76,43.09,4.58-1.81,5.87-3.56,11.52-5.36,17.33-1.38-.51-2.21-.56-2.64-1-13.37-13.8-29.47-14.8-46.25-8.7-17.07,6.21-24.33,20.55-25.2,37.45-.52,10.05.45,21.03,4.07,30.29,12.2,31.2,45.39,31.82,66.32,21.22,2.01-1.02,3.96-2.14,6.9-3.74Z"/>
    </g>
  </symbol>
  <symbol id="arrow" viewBox="0 0 18 14">
    <g fill="none" fill-rule="evenodd" stroke="currentColor" stroke-linecap="round" stroke-linejoin="round" stroke-width="2">
      <path d="M1 7h16M11 1l6 6-6 6"></path>
    </g>
  </symbol>
  <symbol id="message" viewBox="0 0 32 32">
    <g stroke="currentColor" fill="currentColor">
      <path d="M24 7H8a3 3 0 0 0-3 3v10a3 3 0 0 0 3 3h1v4a1 1 0 0 0 1.61.79L16.77 23H24a3 3 0 0 0 3-3V10a3 3 0 0 0-3-3Zm1 13a1 1 0 0 1-1 1h-7.57a1 1 0 0 0-.61.21L11 25v-3a1 1 0 0 0-1-1H8a1 1 0 0 1-1-1V10a1 1 0 0 1 1-1h16a1 1 0 0 1 1 1Z"></path>
      <path d="M11 14h6a1 1 0 0 0 0-2h-6a1 1 0 0 0 0 2zm10 2H11a1 1 0 0 0 0 2h10a1 1 0 0 0 0-2z"></path>
    </g>
  </symbol>
  <symbol id="astro" viewBox="0 0 128 128"><defs><linearGradient id="astroa" x1="882.997" x2="638.955" y1="27.113" y2="866.902" gradientTransform="scale(.1)" gradientUnits="userSpaceOnUse"><stop offset="0" stop-color="#000014"/><stop offset="1" stop-color="#150426"/></linearGradient><linearGradient id="astrob" x1="1001.68" x2="790.326" y1="652.45" y2="1094.91" gradientTransform="scale(.1)" gradientUnits="userSpaceOnUse"><stop offset="0" stop-color="#ff1639"/><stop offset="1" stop-color="#ff1639" stop-opacity="0"/></linearGradient></defs><path fill="url(#astroa)" d="M81.504 9.465c.973 1.207 1.469 2.836 2.457 6.09l21.656 71.136a90.079 90.079 0 0 0-25.89-8.765L65.629 30.28a1.833 1.833 0 0 0-3.52.004L48.18 77.902a90.104 90.104 0 0 0-26.003 8.778l21.758-71.14c.996-3.25 1.492-4.876 2.464-6.083a8.023 8.023 0 0 1 3.243-2.398c1.433-.575 3.136-.575 6.535-.575H71.72c3.402 0 5.105 0 6.543.579a7.988 7.988 0 0 1 3.242 2.402Zm0 0"/><path fill="#ff5d01" d="M84.094 90.074c-3.57 3.055-10.696 5.137-18.903 5.137-10.07 0-18.515-3.137-20.754-7.356-.8 2.418-.98 5.184-.98 6.954 0 0-.527 8.675 5.508 14.71a5.671 5.671 0 0 1 5.672-5.671c5.37 0 5.367 4.683 5.363 8.488v.336c0 5.773 3.527 10.719 8.543 12.805a11.62 11.62 0 0 1-1.172-5.098c0-5.508 3.23-7.555 6.988-9.938 2.989-1.894 6.309-4 8.594-8.222a15.513 15.513 0 0 0 1.875-7.41 15.55 15.55 0 0 0-.734-4.735Zm0 0"/><path fill="url(#astrob)" d="M84.094 90.074c-3.57 3.055-10.696 5.137-18.903 5.137-10.07 0-18.515-3.137-20.754-7.356-.8 2.418-.98 5.184-.98 6.954 0 0-.527 8.675 5.508 14.71a5.671 5.671 0 0 1 5.672-5.671c5.37 0 5.367 4.683 5.363 8.488v.336c0 5.773 3.527 10.719 8.543 12.805a11.62 11.62 0 0 1-1.172-5.098c0-5.508 3.23-7.555 6.988-9.938 2.989-1.894 6.309-4 8.594-8.222a15.513 15.513 0 0 0 1.875-7.41 15.55 15.55 0 0 0-.734-4.735Zm0 0"/></symbol>
  <symbol id="nextjs" viewBox="0 0 128 128"><path d="M64 0C28.7 0 0 28.7 0 64s28.7 64 64 64c11.2 0 21.7-2.9 30.8-7.9L48.4 55.3v36.6h-6.8V41.8h6.8l50.5 75.8C116.4 106.2 128 86.5 128 64c0-35.3-28.7-64-64-64zm22.1 84.6l-7.5-11.3V41.8h7.5v42.8z"/></symbol>
  <symbol id="airflow" viewBox="0 0 128 128">
    <path d="m2.5441 127 60.809-62.332a1.124 1.124 0 0 0 0.1359-1.4368c-3.6977-5.1625-10.521-6.0578-13.05-9.5268-7.4903-10.275-9.3909-16.092-12.61-15.731a0.98374 0.98374 0 0 0-0.58464 0.3085l-21.966 22.518c-12.638 12.944-14.454 41.475-14.782 65.367a1.1908 1.1908 0 0 0 2.0473 0.83273z" fill="#017cee"/>
    <path d="m126.99 125.46-62.332-60.813a1.124 1.124 0 0 0-1.4389-0.1359c-5.1625 3.6998-6.0578 10.521-9.5268 13.05-10.275 7.4903-16.092 9.3909-15.731 12.61a0.98374 0.98374 0 0 0 0.3085 0.58248l22.518 21.966c12.944 12.638 41.475 14.454 65.367 14.782a1.1908 1.1908 0 0 0 0.83489-2.0408z" fill="#00ad46"/>
    <path d="m60.792 112.72c-7.076-6.9035-10.355-20.559 3.2058-48.719-22.046 9.8525-29.771 22.803-25.972 26.511z" fill="#04d659"/>
    <path d="m125.45 1.0113-60.807 62.332a1.1218 1.1218 0 0 0-0.1359 1.4368c3.6998 5.1625 10.519 6.0578 13.05 9.5268 7.4903 10.275 9.393 16.092 12.61 15.731a0.97943 0.97943 0 0 0 0.58464-0.3085l21.966-22.518c12.638-12.944 14.454-41.475 14.782-65.367a1.193 1.193 0 0 0-2.0495-0.83273z" fill="#00c7d4"/>
    <path d="m112.73 67.211c-6.9035 7.076-20.559 10.355-48.721-3.2058 9.8525 22.046 22.803 29.771 26.511 25.972z" fill="#11e1ee"/>
    <path d="m1.0017 2.5495 62.332 60.807a1.124 1.124 0 0 0 1.4368 0.1359c5.1625-3.6998 6.0578-10.521 9.5268-13.05 10.275-7.4903 16.092-9.3909 15.731-12.61a0.99022 0.99022 0 0 0-0.3085-0.58463l-22.518-21.966c-12.944-12.638-41.475-14.454-65.367-14.782a1.1908 1.1908 0 0 0-0.83273 2.0495z" fill="#e43921"/>
    <path d="m67.212 15.284c7.076 6.9035 10.355 20.559-3.2058 48.721 22.046-9.8525 29.771-22.805 25.972-26.511z" fill="#ff7557"/>
    <path d="m15.279 60.8c6.9035-7.076 20.559-10.355 48.721 3.2058-9.8525-22.046-22.803-29.771-26.511-25.972z" fill="#0cb6ff"/>
    <circle cx="64.009" cy="63.995" r="2.7182" fill="#4a4848"/>
  </symbol>
  <symbol id="druid" viewBox="0 0 24 24" fill="#29f1fb"><path d="M8.932 20.806c-.369 0-.738.007-1.109 0-.35-.007-.587-.206-.623-.5a.587.587 0 0 1 .53-.636c.79-.062 1.582-.063 2.372-.003a.548.548 0 0 1 .522.602c-.024.326-.253.526-.616.54zM1.792 8.345c-.392 0-.782.008-1.173.002-.327-.006-.577-.22-.614-.512-.037-.293.146-.544.499-.615.192-.032.388-.045.583-.039a81.515 81.515 0 0 1 1.597 0c.163 0 .325.019.483.056.288.073.445.318.411.617-.034.298-.214.477-.515.487-.424.014-.848.004-1.272.004zm7.588 8.417H4.292a2.464 2.464 0 0 1-.326-.007c-.294-.04-.48-.209-.508-.506-.029-.298.11-.501.391-.606.179-.065.365-.051.549-.051 3.347 0 6.695.005 10.042-.006 1.174-.004 2.187-.439 2.993-1.3.69-.738 1.053-1.63 1.16-2.635.085-.788-.027-1.513-.516-2.156-.544-.718-1.28-1.078-2.163-1.082-3.163-.013-6.328-.005-9.487-.01-.336 0-.673-.027-1.007-.058-.29-.027-.45-.201-.469-.492-.021-.317.141-.545.429-.6a1.55 1.55 0 0 1 .29-.015h10.177c1.71.004 3.187 1.038 3.726 2.654.383 1.147.246 2.304-.182 3.416-.824 2.135-2.762 3.448-5.055 3.454-1.652.005-3.304 0-4.956 0zm2.906-13.568c1.533 0 3.066-.008 4.598 0 2.935.018 5.629 1.892 6.653 4.626.442 1.181.538 2.403.412 3.657-.185 1.842-.735 3.552-1.776 5.084-1.608 2.365-3.873 3.68-6.679 4.118-.95.148-1.905.13-2.86.13-.397 0-.61-.181-.633-.51-.025-.351.196-.621.587-.645.434-.026.87-.004 1.305-.016 2.641-.072 4.928-.982 6.74-2.935 1.269-1.37 1.912-3.039 2.13-4.878.151-1.275.135-2.544-.37-3.752-.773-1.85-2.159-2.983-4.068-3.509-.74-.204-1.5-.243-2.26-.247-2.837-.017-5.675-.007-8.511-.007-.12 0-.24.004-.359-.006a.57.57 0 0 1-.517-.536.557.557 0 0 1 .456-.557c.13-.018.261-.024.392-.019h4.762Z"/></symbol>
  <symbol id="spark" viewBox="0 0 128 128"><path fill="#e15919" d="M57.646.004c-2.269.064-4.51 1.143-6.384 3.223-1.03 1.146-1.905 2.51-2.63 3.855-1.89 3.54-2.262 7.547-2.962 11.43l-3.852 21.81c-.148.856-.532 1.21-1.3 1.455l-28.268 8.98c-2.06.673-4.125 1.543-5.947 2.7-5.558 3.53-6.38 9.338-2.207 14.438 1.842 2.256 4.216 3.843 6.85 4.996l17.603 7.843c.147.08.304.132.463.162l3.717 2.682s-3.7 40.948 3.246 43.781c-.061-.01-.41-.082-.41-.082s.704.761 2.603.537c1.454.27 1.262.226.074-.01 2.583-.334 7.337-2.497 15.578-10.784a47.396 47.396 0 0 0 1.776-1.676l17.8-19.217 4.163 1.465c.15.207.367.34.714.443l19.823 6.031c2.709.836 5.389 1.448 8.277 1.026 5.156-.755 8.951-5 8.9-10.192-.02-2.28-.82-4.339-1.87-6.324l-13.128-24.898c-.418-.787-.405-1.296.196-2l22.054-25.922c1.428-1.703 2.717-3.529 3.465-5.645 1.643-4.67-.482-8.382-5.33-9.289-2.229-.398-4.427-.188-6.6.385l-31.597 8.395c-.93.25-1.39.075-1.895-.772l-12.9-21.434c-.975-1.615-2.14-3.194-3.477-4.527C62.212.89 59.915-.059 57.646.004zm.944 19.736c.51.358.768.727 1.01 1.125l13.88 23.13c.382.628.725.85 1.485.648l24.443-6.497 5.885-1.54c-.087.493-.302.79-.537 1.068l-20.16 23.672c-.57.688-.623 1.17-.194 1.976l12.743 24.16.585 1.237-.015.02-22.727-6.264-.006-.018-4.298-1.205-25.493 28.256 4.663-37.15-4.184-1.82.008-.007-23.674-9.4c.454-.413.86-.585 1.285-.717l28.777-9.096c.676-.21 1.061-.47 1.125-1.242l.403-2.355 3.875-21.807 1.12-6.174z"/></symbol>
  <symbol id="superset" viewBox="-20 -20 210 130">
    <path fill="#484848" d="M125.807 0c-14.517 0-27.89 8.167-40.814 22.437C72.293 7.943 58.696 0 43.506 0C18.354 0 0 17.95 0 42.115c0 24.165 18.354 41.89 43.506 41.89c15.46 0 27.441-7.247 40.814-21.696c12.924 14.494 26.072 21.742 41.487 21.742c25.152-.045 43.506-17.703 43.506-41.936C169.313 17.883 150.959 0 125.807 0ZM43.686 58.651c-10.658 0-17.008-7.022-17.008-16.312c0-9.289 6.35-16.514 17.008-16.514c8.975 0 16.312 7.225 24.255 16.963c-7.495 9.065-15.415 15.863-24.255 15.863Zm81.358 0c-8.84 0-16.312-7.022-24.255-16.312c8.167-9.737 15.19-16.514 24.255-16.514c10.658 0 16.94 7.315 16.94 16.514c0 9.2-6.282 16.312-16.94 16.312Z"/><path fill="#20A7C9" d="m103.257 78.015l16.918-20.194c-6.731-2.02-12.946-8.077-19.386-15.594L84.319 62.31a74.003 74.003 0 0 0 18.938 15.706Zm-18.264-55.6A76.142 76.142 0 0 0 66.168 6.35l-16.94 20.418c6.44 2.244 12.138 8.032 18.197 15.414l.673.472l16.895-20.239Z"/>
  </symbol>
  <symbol id="python" viewBox="0 0 128 128"><linearGradient id="python-original-a" gradientUnits="userSpaceOnUse" x1="70.252" y1="1237.476" x2="170.659" y2="1151.089" gradientTransform="matrix(.563 0 0 -.568 -29.215 707.817)"><stop offset="0" stop-color="#5A9FD4"/><stop offset="1" stop-color="#306998"/></linearGradient><linearGradient id="python-original-b" gradientUnits="userSpaceOnUse" x1="209.474" y1="1098.811" x2="173.62" y2="1149.537" gradientTransform="matrix(.563 0 0 -.568 -29.215 707.817)"><stop offset="0" stop-color="#FFD43B"/><stop offset="1" stop-color="#FFE873"/></linearGradient><path fill="url(#python-original-a)" d="M63.391 1.988c-4.222.02-8.252.379-11.8 1.007-10.45 1.846-12.346 5.71-12.346 12.837v9.411h24.693v3.137H29.977c-7.176 0-13.46 4.313-15.426 12.521-2.268 9.405-2.368 15.275 0 25.096 1.755 7.311 5.947 12.519 13.124 12.519h8.491V67.234c0-8.151 7.051-15.34 15.426-15.34h24.665c6.866 0 12.346-5.654 12.346-12.548V15.833c0-6.693-5.646-11.72-12.346-12.837-4.244-.706-8.645-1.027-12.866-1.008zM50.037 9.557c2.55 0 4.634 2.117 4.634 4.721 0 2.593-2.083 4.69-4.634 4.69-2.56 0-4.633-2.097-4.633-4.69-.001-2.604 2.073-4.721 4.633-4.721z" transform="translate(0 10.26)"/><path fill="url(#python-original-b)" d="M91.682 28.38v10.966c0 8.5-7.208 15.655-15.426 15.655H51.591c-6.756 0-12.346 5.783-12.346 12.549v23.515c0 6.691 5.818 10.628 12.346 12.547 7.816 2.297 15.312 2.713 24.665 0 6.216-1.801 12.346-5.423 12.346-12.547v-9.412H63.938v-3.138h37.012c7.176 0 9.852-5.005 12.348-12.519 2.578-7.735 2.467-15.174 0-25.096-1.774-7.145-5.161-12.521-12.348-12.521h-9.268zM77.809 87.927c2.561 0 4.634 2.097 4.634 4.692 0 2.602-2.074 4.719-4.634 4.719-2.55 0-4.633-2.117-4.633-4.719 0-2.595 2.083-4.692 4.633-4.692z" transform="translate(0 10.26)"/><radialGradient id="python-original-c" cx="1825.678" cy="444.45" r="26.743" gradientTransform="matrix(0 -.24 -1.055 0 532.979 557.576)" gradientUnits="userSpaceOnUse"><stop offset="0" stop-color="#B8B8B8" stop-opacity=".498"/><stop offset="1" stop-color="#7F7F7F" stop-opacity="0"/></radialGradient><path opacity=".444" fill="url(#python-original-c)" d="M97.309 119.597c0 3.543-14.816 6.416-33.091 6.416-18.276 0-33.092-2.873-33.092-6.416 0-3.544 14.815-6.417 33.092-6.417 18.275 0 33.091 2.872 33.091 6.417z"/></symbol>
  <symbol id="postgres" viewBox="0 0 128 128"><path d="M93.809 92.112c.785-6.533.55-7.492 5.416-6.433l1.235.108c3.742.17 8.637-.602 11.513-1.938 6.191-2.873 9.861-7.668 3.758-6.409-13.924 2.873-14.881-1.842-14.881-1.842 14.703-21.815 20.849-49.508 15.543-56.287-14.47-18.489-39.517-9.746-39.936-9.52l-.134.025c-2.751-.571-5.83-.912-9.289-.968-6.301-.104-11.082 1.652-14.709 4.402 0 0-44.683-18.409-42.604 23.151.442 8.841 12.672 66.898 27.26 49.362 5.332-6.412 10.484-11.834 10.484-11.834 2.558 1.699 5.622 2.567 8.834 2.255l.249-.212c-.078.796-.044 1.575.099 2.497-3.757 4.199-2.653 4.936-10.166 6.482-7.602 1.566-3.136 4.355-.221 5.084 3.535.884 11.712 2.136 17.238-5.598l-.22.882c1.474 1.18 1.375 8.477 1.583 13.69.209 5.214.558 10.079 1.621 12.948 1.063 2.868 2.317 10.256 12.191 8.14 8.252-1.764 14.561-4.309 15.136-27.985"/><path d="M75.458 125.256c-4.367 0-7.211-1.689-8.938-3.32-2.607-2.46-3.641-5.629-4.259-7.522l-.267-.79c-1.244-3.358-1.666-8.193-1.916-14.419-.038-.935-.064-1.898-.093-2.919-.021-.747-.047-1.684-.085-2.664a18.8 18.8 0 01-4.962 1.568c-3.079.526-6.389.356-9.84-.507-2.435-.609-4.965-1.871-6.407-3.82-4.203 3.681-8.212 3.182-10.396 2.453-3.853-1.285-7.301-4.896-10.542-11.037-2.309-4.375-4.542-10.075-6.638-16.943-3.65-11.96-5.969-24.557-6.175-28.693C4.292 23.698 7.777 14.44 15.296 9.129 27.157.751 45.128 5.678 51.68 7.915c4.402-2.653 9.581-3.944 15.433-3.851 3.143.051 6.136.327 8.916.823 2.9-.912 8.628-2.221 15.185-2.139 12.081.144 22.092 4.852 28.949 13.615 4.894 6.252 2.474 19.381.597 26.651-2.642 10.226-7.271 21.102-12.957 30.57 1.544.011 3.781-.174 6.961-.831 6.274-1.295 8.109 2.069 8.607 3.575 1.995 6.042-6.677 10.608-9.382 11.864-3.466 1.609-9.117 2.589-13.745 2.377l-.202-.013-1.216-.107-.12 1.014-.116.991c-.311 11.999-2.025 19.598-5.552 24.619-3.697 5.264-8.835 6.739-13.361 7.709-1.544.33-2.947.474-4.219.474zm-9.19-43.671c2.819 2.256 3.066 6.501 3.287 14.434.028.99.054 1.927.089 2.802.106 2.65.355 8.855 1.327 11.477.137.371.26.747.39 1.146 1.083 3.316 1.626 4.979 6.309 3.978 3.931-.843 5.952-1.599 7.534-3.851 2.299-3.274 3.585-9.86 3.821-19.575l4.783.116-4.75-.57.14-1.186c.455-3.91.783-6.734 3.396-8.602 2.097-1.498 4.486-1.353 6.389-1.01-2.091-1.58-2.669-3.433-2.823-4.193l-.399-1.965 1.121-1.663c6.457-9.58 11.781-21.354 14.609-32.304 2.906-11.251 2.02-17.226 1.134-18.356-11.729-14.987-32.068-8.799-34.192-8.097l-.359.194-1.8.335-.922-.191c-2.542-.528-5.366-.82-8.393-.869-4.756-.08-8.593 1.044-11.739 3.431l-2.183 1.655-2.533-1.043c-5.412-2.213-21.308-6.662-29.696-.721-4.656 3.298-6.777 9.76-6.305 19.207.156 3.119 2.275 14.926 5.771 26.377 4.831 15.825 9.221 21.082 11.054 21.693.32.108 1.15-.537 1.976-1.529a270.708 270.708 0 0110.694-12.07l2.77-2.915 3.349 2.225c1.35.897 2.839 1.406 4.368 1.502l7.987-6.812-1.157 11.808c-.026.265-.039.626.065 1.296l.348 2.238-1.51 1.688-.174.196 4.388 2.025 1.836-2.301z"/><path fill="#336791" d="M115.731 77.44c-13.925 2.873-14.882-1.842-14.882-1.842 14.703-21.816 20.849-49.51 15.545-56.287C101.924.823 76.875 9.566 76.457 9.793l-.135.024c-2.751-.571-5.83-.911-9.291-.967-6.301-.103-11.08 1.652-14.707 4.402 0 0-44.684-18.408-42.606 23.151.442 8.842 12.672 66.899 27.26 49.363 5.332-6.412 10.483-11.834 10.483-11.834 2.559 1.699 5.622 2.567 8.833 2.255l.25-.212c-.078.796-.042 1.575.1 2.497-3.758 4.199-2.654 4.936-10.167 6.482-7.602 1.566-3.136 4.355-.22 5.084 3.534.884 11.712 2.136 17.237-5.598l-.221.882c1.473 1.18 2.507 7.672 2.334 13.557-.174 5.885-.29 9.926.871 13.082 1.16 3.156 2.316 10.256 12.192 8.14 8.252-1.768 12.528-6.351 13.124-13.995.422-5.435 1.377-4.631 1.438-9.49l.767-2.3c.884-7.367.14-9.743 5.225-8.638l1.235.108c3.742.17 8.639-.602 11.514-1.938 6.19-2.871 9.861-7.667 3.758-6.408z"/><path fill="#fff" d="M75.957 122.307c-8.232 0-10.84-6.519-11.907-9.185-1.562-3.907-1.899-19.069-1.551-31.503a1.59 1.59 0 011.64-1.55 1.594 1.594 0 011.55 1.639c-.401 14.341.168 27.337 1.324 30.229 1.804 4.509 4.54 8.453 12.275 6.796 7.343-1.575 10.093-4.359 11.318-11.46.94-5.449 2.799-20.951 3.028-24.01a1.593 1.593 0 011.71-1.472 1.597 1.597 0 011.472 1.71c-.239 3.185-2.089 18.657-3.065 24.315-1.446 8.387-5.185 12.191-13.794 14.037-1.463.313-2.792.453-4 .454zM31.321 90.466a6.71 6.71 0 01-2.116-.35c-5.347-1.784-10.44-10.492-15.138-25.885-3.576-11.717-5.842-23.947-6.041-27.922-.589-11.784 2.445-20.121 9.02-24.778 13.007-9.216 34.888-.44 35.813-.062a1.596 1.596 0 01-1.207 2.955c-.211-.086-21.193-8.492-32.768-.285-5.622 3.986-8.203 11.392-7.672 22.011.167 3.349 2.284 15.285 5.906 27.149 4.194 13.742 8.967 22.413 13.096 23.79.648.216 2.62.873 5.439-2.517A245.272 245.272 0 0145.88 73.046a1.596 1.596 0 012.304 2.208c-.048.05-4.847 5.067-10.077 11.359-2.477 2.979-4.851 3.853-6.786 3.853zm69.429-13.445a1.596 1.596 0 01-1.322-2.487c14.863-22.055 20.08-48.704 15.612-54.414-5.624-7.186-13.565-10.939-23.604-11.156-7.433-.16-13.341 1.738-14.307 2.069l-.243.099c-.971.305-1.716-.227-1.997-.849a1.6 1.6 0 01.631-2.025c.046-.027.192-.089.429-.176l-.021.006.021-.007c1.641-.601 7.639-2.4 15.068-2.315 11.108.118 20.284 4.401 26.534 12.388 2.957 3.779 2.964 12.485.019 23.887-3.002 11.625-8.651 24.118-15.497 34.277-.306.457-.81.703-1.323.703zm.76 10.21c-2.538 0-4.813-.358-6.175-1.174-1.4-.839-1.667-1.979-1.702-2.584-.382-6.71 3.32-7.878 5.208-8.411-.263-.398-.637-.866-1.024-1.349-1.101-1.376-2.609-3.26-3.771-6.078-.182-.44-.752-1.463-1.412-2.648-3.579-6.418-11.026-19.773-6.242-26.612 2.214-3.165 6.623-4.411 13.119-3.716C97.6 28.837 88.5 10.625 66.907 10.271c-6.494-.108-11.82 1.889-15.822 5.93-8.96 9.049-8.636 25.422-8.631 25.586a1.595 1.595 0 11-3.19.084c-.02-.727-.354-17.909 9.554-27.916C53.455 9.272 59.559 6.96 66.96 7.081c13.814.227 22.706 7.25 27.732 13.101 5.479 6.377 8.165 13.411 8.386 15.759.165 1.746-1.088 2.095-1.341 2.147l-.576.013c-6.375-1.021-10.465-.312-12.156 2.104-3.639 5.201 3.406 17.834 6.414 23.229.768 1.376 1.322 2.371 1.576 2.985.988 2.396 2.277 4.006 3.312 5.3.911 1.138 1.7 2.125 1.982 3.283.131.23 1.99 2.98 13.021.703 2.765-.57 4.423-.083 4.93 1.45.997 3.015-4.597 6.532-7.694 7.97-2.775 1.29-7.204 2.106-11.036 2.106zm-4.696-4.021c.35.353 2.101.962 5.727.806 3.224-.138 6.624-.839 8.664-1.786 2.609-1.212 4.351-2.567 5.253-3.492l-.5.092c-7.053 1.456-12.042 1.262-14.828-.577a6.162 6.162 0 01-.54-.401c-.302.119-.581.197-.78.253-1.58.443-3.214.902-2.996 5.105zm-45.562 8.915c-1.752 0-3.596-.239-5.479-.71-1.951-.488-5.24-1.957-5.19-4.37.057-2.707 3.994-3.519 5.476-3.824 5.354-1.103 5.703-1.545 7.376-3.67.488-.619 1.095-1.39 1.923-2.314 1.229-1.376 2.572-2.073 3.992-2.073.989 0 1.8.335 2.336.558 1.708.708 3.133 2.42 3.719 4.467.529 1.847.276 3.625-.71 5.006-3.237 4.533-7.886 6.93-13.443 6.93zm-7.222-4.943c.481.372 1.445.869 2.518 1.137 1.631.408 3.213.615 4.705.615 4.546 0 8.196-1.882 10.847-5.594.553-.774.387-1.757.239-2.274-.31-1.083-1.08-2.068-1.873-2.397-.43-.178-.787-.314-1.115-.314-.176 0-.712 0-1.614 1.009a41.146 41.146 0 00-1.794 2.162c-2.084 2.646-3.039 3.544-9.239 4.821-1.513.31-2.289.626-2.674.835zm12.269-7.36a1.596 1.596 0 01-1.575-1.354 8.218 8.218 0 01-.08-.799c-4.064-.076-7.985-1.82-10.962-4.926-3.764-3.927-5.477-9.368-4.699-14.927.845-6.037.529-11.366.359-14.229-.047-.796-.081-1.371-.079-1.769.003-.505.013-1.844 4.489-4.113 1.592-.807 4.784-2.215 8.271-2.576 5.777-.597 9.585 1.976 10.725 7.246 3.077 14.228.244 20.521-1.825 25.117-.385.856-.749 1.664-1.04 2.447l-.257.69c-1.093 2.931-2.038 5.463-1.748 7.354a1.595 1.595 0 01-1.335 1.819l-.244.02zM42.464 42.26l.062 1.139c.176 2.974.504 8.508-.384 14.86-.641 4.585.759 9.06 3.843 12.276 2.437 2.542 5.644 3.945 8.94 3.945h.068c.369-1.555.982-3.197 1.642-4.966l.255-.686c.329-.884.714-1.74 1.122-2.646 1.991-4.424 4.47-9.931 1.615-23.132-.565-2.615-1.936-4.128-4.189-4.627-4.628-1.022-11.525 2.459-12.974 3.837zm9.63-.677c-.08.564 1.033 2.07 2.485 2.271 1.449.203 2.689-.975 2.768-1.539.079-.564-1.033-1.186-2.485-1.388-1.451-.202-2.691.092-2.768.656zm2.818 2.826l-.407-.028c-.9-.125-1.81-.692-2.433-1.518-.219-.29-.576-.852-.505-1.354.101-.736.999-1.177 2.4-1.177.313 0 .639.023.967.069.766.106 1.477.327 2.002.62.91.508.977 1.075.936 1.368-.112.813-1.405 2.02-2.96 2.02zm-2.289-2.732c.045.348.907 1.496 2.029 1.651l.261.018c1.036 0 1.81-.815 1.901-1.082-.096-.182-.762-.634-2.025-.81a5.823 5.823 0 00-.821-.059c-.812 0-1.243.183-1.345.282zm43.605-1.245c.079.564-1.033 2.07-2.484 2.272-1.45.202-2.691-.975-2.771-1.539-.076-.564 1.036-1.187 2.486-1.388 1.45-.203 2.689.092 2.769.655zm-2.819 2.56c-1.396 0-2.601-1.086-2.7-1.791-.115-.846 1.278-1.489 2.712-1.688.316-.044.629-.066.93-.066 1.238 0 2.058.363 2.14.949.053.379-.238.964-.739 1.492-.331.347-1.026.948-1.973 1.079l-.37.025zm.943-3.013c-.276 0-.564.021-.856.061-1.441.201-2.301.779-2.259 1.089.048.341.968 1.332 2.173 1.332l.297-.021c.787-.109 1.378-.623 1.66-.919.443-.465.619-.903.598-1.052-.028-.198-.56-.49-1.613-.49zm3.965 32.843a1.594 1.594 0 01-1.324-2.483c3.398-5.075 2.776-10.25 2.175-15.255-.257-2.132-.521-4.337-.453-6.453.07-2.177.347-3.973.614-5.71.317-2.058.617-4.002.493-6.31a1.595 1.595 0 113.186-.172c.142 2.638-.197 4.838-.525 6.967-.253 1.643-.515 3.342-.578 5.327-.061 1.874.178 3.864.431 5.97.64 5.322 1.365 11.354-2.691 17.411a1.596 1.596 0 01-1.328.708z"/></symbol>
  <symbol id="flutter" viewBox="0 0 128 128"><g fill="#3FB6D3"><path d="M12.3 64.2L76.3 0h39.4L32.1 83.6zM76.3 128h39.4L81.6 93.9l34.1-34.8H76.3L42.2 93.5z"/></g><path fill="#27AACD" d="M81.6 93.9l-20-20-19.4 19.6 19.4 19.6z"/><path fill="#19599A" d="M115.7 128L81.6 93.9l-20 19.2L76.3 128z"/><linearGradient id="flutter-original-a" gradientUnits="userSpaceOnUse" x1="59.365" y1="116.36" x2="86.825" y2="99.399"><stop offset="0" stop-color="#1b4e94"/><stop offset=".63" stop-color="#1a5497"/><stop offset="1" stop-color="#195a9b"/></linearGradient><path fill="url(#flutter-original-a)" d="M61.6 113.1l30.8-8.4-10.8-10.8z"/></symbol>
  <symbol id="c++" viewBox="0 0 128 128">
    <path fill="#00599c" d="M118.766 95.82c.89-1.543 1.441-3.28 1.441-4.843V36.78c0-1.558-.55-3.297-1.441-4.84l-55.32 31.94Zm0 0"/>
    <path fill="#004482" d="m68.36 126.586 46.933-27.094c1.352-.781 2.582-2.129 3.473-3.672l-55.32-31.94L8.12 95.82c.89 1.543 2.121 2.89 3.473 3.672l46.933 27.094c2.703 1.562 7.13 1.562 9.832 0Zm0 0"/>
    <path fill="#659ad2" d="M118.766 31.941c-.891-1.546-2.121-2.894-3.473-3.671L68.359 1.172c-2.703-1.563-7.129-1.563-9.832 0L11.594 28.27C8.89 29.828 6.68 33.66 6.68 36.78v54.196c0 1.562.55 3.3 1.441 4.843L63.445 63.88Zm0 0"/>
    <path fill="#fff" d="M63.445 26.035c-20.867 0-37.843 16.977-37.843 37.844s16.976 37.844 37.843 37.844c13.465 0 26.024-7.247 32.77-18.91L79.84 73.335c-3.38 5.84-9.66 9.465-16.395 9.465-10.433 0-18.922-8.488-18.922-18.922 0-10.434 8.49-18.922 18.922-18.922 6.73 0 13.017 3.629 16.39 9.465l16.38-9.477c-6.75-11.664-19.305-18.91-32.77-18.91zM92.88 57.57v4.207h-4.207v4.203h4.207v4.207h4.203V65.98h4.203v-4.203h-4.203V57.57H92.88zm15.766 0v4.207h-4.204v4.203h4.204v4.207h4.207V65.98h4.203v-4.203h-4.203V57.57h-4.207z"/>
  </symbol>
  <symbol id="netcore" viewBox="0 0 64 64"><defs><style>.ncorecls-1{fill:#5c2d91;}.ncorecls-2,.ncorecls-3{fill:#fff;}.ncorecls-2{opacity:0.1;}.ncorecls-4{fill:#f2f2f2;}</style></defs><circle class="ncorecls-1" cx="32" cy="32" r="32"/><path class="ncorecls-2" d="M9.82,9A32,32,0,1,0,55,54.18Z"/><path class="ncorecls-3" d="M7.4,37.25a1.35,1.35,0,0,1-1-.42,1.38,1.38,0,0,1-.41-1,1.4,1.4,0,0,1,.41-1,1.34,1.34,0,0,1,1-.43,1.37,1.37,0,0,1,1,.43,1.39,1.39,0,0,1,.42,1,1.37,1.37,0,0,1-.42,1A1.38,1.38,0,0,1,7.4,37.25Z"/><path class="ncorecls-3" d="M27.27,37H24.65L15.28,22.46a6,6,0,0,1-.58-1.14h-.08a18.72,18.72,0,0,1,.1,2.5V37H12.59V18.77h2.77l9.12,14.28q.57.89.74,1.22h.05a19.28,19.28,0,0,1-.13-2.68V18.77h2.13Z"/><path class="ncorecls-3" d="M41.69,37H32V18.77h9.24V20.7H34.18v6.06h6.58v1.92H34.18V35h7.52Z"/><path class="ncorecls-3" d="M56,20.7H50.7V37H48.57V20.7H43.33V18.77H56Z"/><path class="ncorecls-4" d="M26.12,49.4a4.93,4.93,0,0,1-2.32.49,3.74,3.74,0,0,1-2.87-1.15,4.26,4.26,0,0,1-1.08-3,4.46,4.46,0,0,1,1.21-3.26,4.12,4.12,0,0,1,3.08-1.24,4.93,4.93,0,0,1,2,.35v1a4,4,0,0,0-2-.5,3.06,3.06,0,0,0-2.35,1,3.64,3.64,0,0,0-.9,2.58,3.47,3.47,0,0,0,.84,2.45,2.86,2.86,0,0,0,2.21.91,4.14,4.14,0,0,0,2.19-.56Z"/><path class="ncorecls-4" d="M30.21,49.89A2.78,2.78,0,0,1,28.08,49a3.11,3.11,0,0,1-.79-2.23,3.24,3.24,0,0,1,.83-2.36,3,3,0,0,1,2.23-.85,2.69,2.69,0,0,1,2.09.83,3.28,3.28,0,0,1,.75,2.29,3.22,3.22,0,0,1-.81,2.3A2.84,2.84,0,0,1,30.21,49.89Zm.07-5.47a1.83,1.83,0,0,0-1.46.63,2.59,2.59,0,0,0-.54,1.74,2.45,2.45,0,0,0,.54,1.68,1.85,1.85,0,0,0,1.46.62,1.76,1.76,0,0,0,1.43-.6,2.62,2.62,0,0,0,.5-1.72,2.66,2.66,0,0,0-.5-1.73A1.75,1.75,0,0,0,30.28,44.42Z"/><path class="ncorecls-4" d="M37.86,44.72a1.18,1.18,0,0,0-.73-.19,1.23,1.23,0,0,0-1,.58,2.68,2.68,0,0,0-.41,1.58v3.06h-1v-6h1V45h0a2.1,2.1,0,0,1,.63-1,1.43,1.43,0,0,1,.94-.35,1.57,1.57,0,0,1,.57.08Z"/><path class="ncorecls-4" d="M43.72,47H39.49A2.24,2.24,0,0,0,40,48.54a1.86,1.86,0,0,0,1.42.54,3,3,0,0,0,1.86-.67v.9a3.48,3.48,0,0,1-2.09.57,2.54,2.54,0,0,1-2-.82,3.35,3.35,0,0,1-.73-2.3,3.28,3.28,0,0,1,.79-2.28,2.55,2.55,0,0,1,2-.88,2.26,2.26,0,0,1,1.82.76,3.18,3.18,0,0,1,.64,2.12Zm-1-.81a2,2,0,0,0-.4-1.29,1.37,1.37,0,0,0-1.1-.46,1.55,1.55,0,0,0-1.15.49,2.21,2.21,0,0,0-.59,1.27Z"/></symbol>
  <symbol id="java" viewBox="0 0 512 512" fill="none"><rect width="512" height="512" rx="15%" fill="#ffffff"/><path d="M274 235c18 21-5 40-5 40s47-24 25-54-35-42 48-90C342 130 211 163 274 235M294 53s40 40-38 100c-62 49-14 77 0 109-36-33-63-61-45-88C238 134 310 115 294 53" fill="#f8981d"/><path d="M206 347s-15 8 10 11 46 3 79-3a137 137 0 0 0 21 10C242 397 147 364 206 347m-9-42s-16 12 9 15 58 4 102-5a45 45 0 0 0 16 10C233 351 132 327 197 305m175 73s11 9-12 16c-43 13-179 17-217 1-14-6 15-17 33-17-17-10-98 21-42 30C287 432 412 396 372 378M213 262s-69 16-25 22c19 3 57 2 92-1s57-8 57-8a122 122 0 0 0-17 9c-70 18-206 10-167-9S213 262 213 262m124 69c73-37 39-80 7-66 36-30 101 36-9 68v-2M220 432c69 4 174-2 176-35 0 0-5 12-57 22s-131 10-174 3C166 422 175 429 220 432" fill="#5382a1"/></symbol>
  <symbol id="typescript" viewBox="0 0 128 128"><path fill="#fff" d="M22.67 47h99.67v73.67H22.67z"/><path data-name="original" fill="#007acc" d="M1.5 63.91v62.5h125v-125H1.5zm100.73-5a15.56 15.56 0 017.82 4.5 20.58 20.58 0 013 4c0 .16-5.4 3.81-8.69 5.85-.12.08-.6-.44-1.13-1.23a7.09 7.09 0 00-5.87-3.53c-3.79-.26-6.23 1.73-6.21 5a4.58 4.58 0 00.54 2.34c.83 1.73 2.38 2.76 7.24 4.86 8.95 3.85 12.78 6.39 15.16 10 2.66 4 3.25 10.46 1.45 15.24-2 5.2-6.9 8.73-13.83 9.9a38.32 38.32 0 01-9.52-.1 23 23 0 01-12.72-6.63c-1.15-1.27-3.39-4.58-3.25-4.82a9.34 9.34 0 011.15-.73L82 101l3.59-2.08.75 1.11a16.78 16.78 0 004.74 4.54c4 2.1 9.46 1.81 12.16-.62a5.43 5.43 0 00.69-6.92c-1-1.39-3-2.56-8.59-5-6.45-2.78-9.23-4.5-11.77-7.24a16.48 16.48 0 01-3.43-6.25 25 25 0 01-.22-8c1.33-6.23 6-10.58 12.82-11.87a31.66 31.66 0 019.49.26zm-29.34 5.24v5.12H56.66v46.23H45.15V69.26H28.88v-5a49.19 49.19 0 01.12-5.17C29.08 59 39 59 51 59h21.83z"/></symbol>
  <symbol id="vue" viewBox="0 0 128 128"><path d="M0 8.934l49.854.158 14.167 24.47 14.432-24.47L128 8.935l-63.834 110.14zm126.98.637l-24.36.02-38.476 66.053L25.691 9.592.942 9.572l63.211 107.89zm-25.149-.008l-22.745.168-15.053 24.647L49.216 9.73l-22.794-.168 37.731 64.476zm-75.834-.17l23.002.009m-23.002-.01l23.002.01" fill="none"/><path d="M25.997 9.393l23.002.009L64.035 34.36 79.018 9.404 102 9.398 64.15 75.053z" fill="#35495e"/><path d="M.91 9.569l25.067-.172 38.15 65.659L101.98 9.401l25.11.026-62.966 108.06z" fill="#41b883"/></symbol>
  <symbol id="aws" viewBox="0 0 128 128">
    <path fill="#252f3e" d="M36.379 53.64c0 1.56.168 2.825.465 3.75.336.926.758 1.938 1.347 3.032.207.336.293.672.293.969 0 .418-.254.84-.8 1.261l-2.653 1.77c-.379.25-.758.379-1.093.379-.422 0-.844-.211-1.266-.59a13.28 13.28 0 0 1-1.516-1.98 34.153 34.153 0 0 1-1.304-2.485c-3.282 3.875-7.41 5.813-12.38 5.813-3.535 0-6.355-1.012-8.421-3.032-2.063-2.023-3.114-4.718-3.114-8.086 0-3.578 1.262-6.484 3.833-8.671 2.566-2.192 5.976-3.286 10.316-3.286 1.43 0 2.902.125 4.46.336 1.56.211 3.161.547 4.845.926v-3.074c0-3.2-.676-5.43-1.98-6.734C26.061 32.633 23.788 32 20.546 32c-1.473 0-2.988.168-4.547.547a33.416 33.416 0 0 0-4.547 1.433c-.676.293-1.18.461-1.473.547-.296.082-.507.125-.675.125-.59 0-.883-.422-.883-1.304v-2.063c0-.676.082-1.18.293-1.476.21-.293.59-.586 1.18-.883 1.472-.758 3.242-1.39 5.304-1.895 2.063-.547 4.254-.8 6.57-.8 5.008 0 8.672 1.136 11.032 3.41 2.316 2.273 3.492 5.726 3.492 10.359v13.64Zm-17.094 6.403c1.387 0 2.82-.254 4.336-.758 1.516-.508 2.863-1.433 4-2.695.672-.8 1.18-1.684 1.43-2.695.254-1.012.422-2.23.422-3.665v-1.765a34.401 34.401 0 0 0-3.871-.719 31.816 31.816 0 0 0-3.961-.25c-2.82 0-4.883.547-6.274 1.684-1.387 1.136-2.062 2.734-2.062 4.84 0 1.98.504 3.453 1.558 4.464 1.012 1.051 2.485 1.559 4.422 1.559Zm33.809 4.547c-.758 0-1.262-.125-1.598-.422-.34-.254-.633-.84-.887-1.64L40.715 29.98c-.25-.843-.38-1.39-.38-1.687 0-.672.337-1.05 1.013-1.05h4.125c.8 0 1.347.124 1.644.421.336.25.59.84.84 1.64l7.074 27.876 6.57-27.875c.208-.84.462-1.39.797-1.64.34-.255.93-.423 1.688-.423h3.367c.8 0 1.348.125 1.684.422.336.25.633.84.8 1.64l6.653 28.212 7.285-28.211c.25-.84.547-1.39.84-1.64.336-.255.887-.423 1.644-.423h3.914c.676 0 1.055.336 1.055 1.051 0 .21-.043.422-.086.676-.043.254-.125.59-.293 1.05L80.801 62.57c-.254.84-.547 1.387-.887 1.64-.336.255-.883.423-1.598.423h-3.62c-.801 0-1.348-.13-1.684-.422-.34-.297-.633-.844-.801-1.684l-6.527-27.16-6.485 27.117c-.21.844-.46 1.391-.8 1.684-.337.297-.926.422-1.684.422Zm54.105 1.137c-2.187 0-4.379-.254-6.484-.758-2.106-.504-3.746-1.055-4.84-1.684-.676-.379-1.137-.8-1.305-1.18a2.919 2.919 0 0 1-.254-1.18v-2.148c0-.882.336-1.304.97-1.304.25 0 .503.043.757.129.25.082.629.25 1.05.418a23.102 23.102 0 0 0 4.634 1.476c1.683.336 3.324.504 5.011.504 2.653 0 4.715-.465 6.145-1.39 1.433-.926 2.191-2.274 2.191-4 0-1.18-.379-2.145-1.136-2.946-.758-.8-2.192-1.516-4.254-2.191l-6.106-1.895c-3.074-.969-5.348-2.398-6.734-4.293-1.39-1.855-2.106-3.918-2.106-6.105 0-1.77.38-3.328 1.137-4.676a10.829 10.829 0 0 1 3.031-3.453c1.262-.965 2.696-1.684 4.38-2.188 1.683-.504 3.452-.715 5.304-.715.926 0 1.894.043 2.82.168.969.125 1.852.293 2.738.461.84.211 1.641.422 2.399.676.758.254 1.348.504 1.77.758.59.336 1.011.672 1.261 1.05.254.34.379.802.379 1.391v1.98c0 .884-.336 1.348-.969 1.348-.336 0-.883-.171-1.597-.507-2.403-1.094-5.098-1.641-8.086-1.641-2.399 0-4.293.379-5.598 1.18-1.309.797-1.98 2.02-1.98 3.746 0 1.18.421 2.191 1.261 2.988.844.8 2.403 1.602 4.633 2.316l5.98 1.895c3.032.969 5.22 2.316 6.524 4.043 1.305 1.727 1.938 3.707 1.938 5.895 0 1.812-.38 3.453-1.094 4.882-.758 1.434-1.77 2.696-3.074 3.707-1.305 1.051-2.864 1.809-4.672 2.36-1.895.586-3.875.883-6.024.883Zm0 0"/>
    <path fill="#f90" d="M118 73.348c-4.432.063-9.664 1.052-13.621 3.832-1.223.883-1.012 2.062.336 1.894 4.508-.547 14.44-1.726 16.21.547 1.77 2.23-1.976 11.62-3.663 15.79-.504 1.26.59 1.769 1.726.8 7.41-6.231 9.348-19.242 7.832-21.137-.757-.925-4.388-1.79-8.82-1.726zM1.63 75.859c-.927.116-1.347 1.236-.368 2.121 16.508 14.902 38.359 23.872 62.613 23.872 17.305 0 37.43-5.43 51.281-15.66 2.273-1.688.297-4.254-2.02-3.204-15.534 6.57-32.421 9.77-47.788 9.77-22.778 0-44.8-6.273-62.653-16.633-.39-.231-.755-.304-1.064-.266z"/>
  </symbol>
  <symbol viewBox="0 0 128 128" id="azure"><defs><linearGradient id="azure-original-a" x1="60.919" y1="9.602" x2="18.667" y2="134.423" gradientUnits="userSpaceOnUse"><stop stop-color="#114A8B"/><stop offset="1" stop-color="#0669BC"/></linearGradient><linearGradient id="azure-original-b" x1="74.117" y1="67.772" x2="64.344" y2="71.076" gradientUnits="userSpaceOnUse"><stop stop-opacity=".3"/><stop offset=".071" stop-opacity=".2"/><stop offset=".321" stop-opacity=".1"/><stop offset=".623" stop-opacity=".05"/><stop offset="1" stop-opacity="0"/></linearGradient><linearGradient id="azure-original-c" x1="68.742" y1="5.961" x2="115.122" y2="129.525" gradientUnits="userSpaceOnUse"><stop stop-color="#3CCBF4"/><stop offset="1" stop-color="#2892DF"/></linearGradient></defs><path d="M46.09.002h40.685L44.541 125.137a6.485 6.485 0 01-6.146 4.413H6.733a6.482 6.482 0 01-5.262-2.699 6.474 6.474 0 01-.876-5.848L39.944 4.414A6.488 6.488 0 0146.09 0z" fill="url(#azure-original-a)" transform="translate(.587 4.468) scale(.91904)"/><path d="M97.28 81.607H37.987a2.743 2.743 0 00-1.874 4.751l38.1 35.562a5.991 5.991 0 004.087 1.61h33.574z" fill="#0078d4"/><path d="M46.09.002A6.434 6.434 0 0039.93 4.5L.644 120.897a6.469 6.469 0 006.106 8.653h32.48a6.942 6.942 0 005.328-4.531l7.834-23.089 27.985 26.101a6.618 6.618 0 004.165 1.519h36.396l-15.963-45.616-46.533.011L86.922.002z" fill="url(#azure-original-b)" transform="translate(.587 4.468) scale(.91904)"/><path d="M98.055 4.408A6.476 6.476 0 0091.917.002H46.575a6.478 6.478 0 016.137 4.406l39.35 116.594a6.476 6.476 0 01-6.137 8.55h45.344a6.48 6.48 0 006.136-8.55z" fill="url(#azure-original-c)" transform="translate(.587 4.468) scale(.91904)"/></symbol>
  <symbol id="heroku" viewBox="0 0 128 128"><path d="M114 13.9C114 7.3 108.7 2 102.1 2H25.9C19.3 2 14 7.3 14 13.9v100.3c0 6.6 5.3 11.9 11.9 11.9h76.3c6.6 0 11.9-5.3 11.9-11.9V13.9zm-4 .1v99.3c0 4.7-3.5 8.7-8.2 8.7H26.5c-4.7 0-8.5-4-8.5-8.7V14c0-4.7 3.9-8 8.5-8h75.2c4.7 0 8.4 3.6 8.4 8.3l-.1-.3zm-73 94.7l14.1-14.1L37 80.5zm14-60.9V18.4l-13.9.1s.1 45.9.2 45.7C80.1 47.5 77 59.4 77 59.4v49.4l-.1.2H90V59.5c0-27.1-39-11.7-39-11.7zM70 36h14.8c8-10 10.7-17 10.7-17H80.2S75.3 30 70 36z" fill="#6762A6"/></symbol>
  <symbol id="docker" viewBox="0 0 128 128"><path fill-rule="evenodd" clip-rule="evenodd" fill="#3A4D54" d="M73.8 50.8h11.3v11.5h5.7c2.6 0 5.3-.5 7.8-1.3 1.2-.4 2.6-1 3.8-1.7-1.6-2.1-2.4-4.7-2.6-7.3-.3-3.5.4-8.1 2.8-10.8l1.2-1.4 1.4 1.1c3.6 2.9 6.5 6.8 7.1 11.4 4.3-1.3 9.3-1 13.1 1.2l1.5.9-.8 1.6c-3.2 6.2-9.9 8.2-16.4 7.8-9.8 24.3-31 35.8-56.8 35.8-13.3 0-25.5-5-32.5-16.8l-.1-.2-1-2.1c-2.4-5.2-3.1-10.9-2.6-16.6l.2-1.7h9.6V50.8h11.3V39.6h22.5V28.3h13.5v22.5z"/><path fill="#00AADA" d="M110.4 55.1c.8-5.9-3.6-10.5-6.4-12.7-3.1 3.6-3.6 13.2 1.3 17.2-2.8 2.4-8.5 4.7-14.5 4.7H18.6c-.6 6.2.5 11.9 3 16.8l.8 1.5c.5.9 1.1 1.7 1.7 2.6 3 .2 5.7.3 8.2.2 4.9-.1 8.9-.7 12-1.7.5-.2.9.1 1.1.5.2.5-.1.9-.5 1.1-.4.1-.8.3-1.3.4-2.4.7-5 1.1-8.3 1.3h-.6c-1.3.1-2.7.1-4.2.1-1.6 0-3.1 0-4.9-.1 6 6.8 15.4 10.8 27.2 10.8 25 0 46.2-11.1 55.5-35.9 6.7.7 13.1-1 16-6.7-4.5-2.7-10.5-1.8-13.9-.1z"/><path fill="#28B8EB" d="M110.4 55.1c.8-5.9-3.6-10.5-6.4-12.7-3.1 3.6-3.6 13.2 1.3 17.2-2.8 2.4-8.5 4.7-14.5 4.7h-68c-.3 9.5 3.2 16.7 9.5 21 4.9-.1 8.9-.7 12-1.7.5-.2.9.1 1.1.5.2.5-.1.9-.5 1.1-.4.1-.8.3-1.3.4-2.4.7-5.2 1.2-8.5 1.4l-.1-.1c8.5 4.4 20.8 4.3 35-1.1 15.8-6.1 30.6-17.7 40.9-30.9-.2.1-.4.1-.5.2z"/><path fill="#028BB8" d="M18.7 71.8c.4 3.3 1.4 6.4 2.9 9.3l.8 1.5c.5.9 1.1 1.7 1.7 2.6 3 .2 5.7.3 8.2.2 4.9-.1 8.9-.7 12-1.7.5-.2.9.1 1.1.5.2.5-.1.9-.5 1.1-.4.1-.8.3-1.3.4-2.4.7-5.2 1.2-8.5 1.4h-.4c-1.3.1-2.7.1-4.1.1-1.6 0-3.2 0-4.9-.1 6 6.8 15.5 10.8 27.3 10.8 21.4 0 40-8.1 50.8-26H18.7v-.1z"/><path fill="#019BC6" d="M23.5 71.8c1.3 5.8 4.3 10.4 8.8 13.5 4.9-.1 8.9-.7 12-1.7.5-.2.9.1 1.1.5.2.5-.1.9-.5 1.1-.4.1-.8.3-1.3.4-2.4.7-5.2 1.2-8.6 1.4 8.5 4.4 20.8 4.3 34.9-1.1 8.5-3.3 16.8-8.2 24.2-14.1H23.5z"/><path fill-rule="evenodd" clip-rule="evenodd" fill="#00ACD3" d="M28.4 52.7h9.8v9.8h-9.8v-9.8zm.8.8h.8v8.1h-.8v-8.1zm1.4 0h.8v8.1h-.8v-8.1zm1.5 0h.8v8.1h-.8v-8.1zm1.5 0h.8v8.1h-.8v-8.1zm1.5 0h.8v8.1h-.8v-8.1zm1.5 0h.8v8.1h-.8v-8.1zm3-12h9.8v9.8h-9.8v-9.8zm.9.8h.8v8.1h-.8v-8.1zm1.4 0h.8v8.1h-.8v-8.1zm1.5 0h.8v8.1h-.8v-8.1zm1.5 0h.8v8.1h-.8v-8.1zm1.4 0h.8v8.1h-.8v-8.1zm1.5 0h.8v8.1h-.8v-8.1z"/><path fill-rule="evenodd" clip-rule="evenodd" fill="#23C2EE" d="M39.6 52.7h9.8v9.8h-9.8v-9.8zm.9.8h.8v8.1h-.8v-8.1zm1.4 0h.8v8.1h-.8v-8.1zm1.5 0h.8v8.1h-.8v-8.1zm1.5 0h.8v8.1h-.8v-8.1zm1.4 0h.8v8.1h-.8v-8.1zm1.5 0h.8v8.1h-.8v-8.1z"/><path fill-rule="evenodd" clip-rule="evenodd" fill="#00ACD3" d="M50.9 52.7h9.8v9.8h-9.8v-9.8zm.8.8h.8v8.1h-.8v-8.1zm1.5 0h.8v8.1h-.8v-8.1zm1.5 0h.8v8.1h-.8v-8.1zm1.4 0h.8v8.1h-.8v-8.1zm1.5 0h.8v8.1h-.8v-8.1zm1.5 0h.8v8.1h-.8v-8.1z"/><path fill-rule="evenodd" clip-rule="evenodd" fill="#23C2EE" d="M50.9 41.5h9.8v9.8h-9.8v-9.8zm.8.8h.8v8.1h-.8v-8.1zm1.5 0h.8v8.1h-.8v-8.1zm1.5 0h.8v8.1h-.8v-8.1zm1.4 0h.8v8.1h-.8v-8.1zm1.5 0h.8v8.1h-.8v-8.1zm1.5 0h.8v8.1h-.8v-8.1zm3.1 10.4H72v9.8h-9.8v-9.8zm.8.8h.8v8.1H63v-8.1zm1.5 0h.8v8.1h-.8v-8.1zm1.4 0h.8v8.1h-.8v-8.1zm1.5 0h.8v8.1h-.8v-8.1zm1.5 0h.8v8.1h-.8v-8.1zm1.5 0h.8v8.1h-.8v-8.1z"/><path fill-rule="evenodd" clip-rule="evenodd" fill="#00ACD3" d="M62.2 41.5H72v9.8h-9.8v-9.8zm.8.8h.8v8.1H63v-8.1zm1.5 0h.8v8.1h-.8v-8.1zm1.4 0h.8v8.1h-.8v-8.1zm1.5 0h.8v8.1h-.8v-8.1zm1.5 0h.8v8.1h-.8v-8.1zm1.5 0h.8v8.1h-.8v-8.1z"/><path fill-rule="evenodd" clip-rule="evenodd" fill="#23C2EE" d="M62.2 30.2H72V40h-9.8v-9.8zm.8.8h.8v8.1H63V31zm1.5 0h.8v8.1h-.8V31zm1.4 0h.8v8.1h-.8V31zm1.5 0h.8v8.1h-.8V31zm1.5 0h.8v8.1h-.8V31zm1.5 0h.8v8.1h-.8V31z"/><path fill-rule="evenodd" clip-rule="evenodd" fill="#00ACD3" d="M73.5 52.7h9.8v9.8h-9.8v-9.8zm.8.8h.8v8.1h-.8v-8.1zm1.4 0h.8v8.1h-.8v-8.1zm1.5 0h.8v8.1h-.8v-8.1zm1.5 0h.8v8.1h-.8v-8.1zm1.5 0h.8v8.1h-.8v-8.1zm1.5 0h.8v8.1h-.8v-8.1z"/><path fill-rule="evenodd" clip-rule="evenodd" fill="#D4EEF1" d="M48.8 78.3c1.5 0 2.7 1.2 2.7 2.7 0 1.5-1.2 2.7-2.7 2.7-1.5 0-2.7-1.2-2.7-2.7 0-1.5 1.2-2.7 2.7-2.7"/><path fill-rule="evenodd" clip-rule="evenodd" fill="#3A4D54" d="M48.8 79.1c.2 0 .5 0 .7.1-.2.1-.4.4-.4.7 0 .4.4.8.8.8.3 0 .6-.2.7-.4.1.2.1.5.1.7 0 1.1-.9 1.9-1.9 1.9-1.1 0-1.9-.9-1.9-1.9 0-1 .8-1.9 1.9-1.9M1.1 72.8h125.4c-2.7-.7-8.6-1.6-7.7-5.2-5 5.7-16.9 4-20 1.2-3.4 4.9-23 3-24.3-.8-4.2 5-17.3 5-21.5 0-1.4 3.8-21 5.7-24.3.8-3 2.8-15 4.5-20-1.2 1.1 3.5-4.9 4.5-7.6 5.2"/><path fill="#BFDBE0" d="M56 97.8c-6.7-3.2-10.3-7.5-12.4-12.2-2.5.7-5.5 1.2-8.9 1.4-1.3.1-2.7.1-4.1.1-1.7 0-3.4 0-5.2-.1 6 6 13.6 10.7 27.5 10.8H56z"/><path fill="#D4EEF1" d="M46.1 89.9c-.9-1.3-1.8-2.8-2.5-4.3-2.5.7-5.5 1.2-8.9 1.4 2.3 1.2 5.7 2.4 11.4 2.9z"/></symbol>
  <symbol id="firebase" viewBox="0 0 128 128"><path fill="#f58220" d="M27.35 80.52l10.68-68.44c.37-2.33 3.5-2.89 4.6-.8l11.48 21.48-26.76 47.76zm75.94 16.63L93.1 34.11c-.31-1.96-2.76-2.76-4.17-1.35L24.71 97.15l35.54 19.95a7.447 7.447 0 007.18 0l35.86-19.95zm-28.85-55L66.21 26.5c-.92-1.78-3.44-1.78-4.36 0L25.7 90.95l48.74-48.8z"/></symbol>
  <symbol id="googlecloud" viewBox="0 0 128 128"><path fill="#ea4535" d="M80.6 40.3h.4l-.2-.2 14-14v-.3c-11.8-10.4-28.1-14-43.2-9.5C36.5 20.8 24.9 32.8 20.7 48c.2-.1.5-.2.8-.2 5.2-3.4 11.4-5.4 17.9-5.4 2.2 0 4.3.2 6.4.6.1-.1.2-.1.3-.1 9-9.9 24.2-11.1 34.6-2.6h-.1z"/><path fill="#557ebf" d="M108.1 47.8c-2.3-8.5-7.1-16.2-13.8-22.1L80 39.9c6 4.9 9.5 12.3 9.3 20v2.5c16.9 0 16.9 25.2 0 25.2H63.9v20h-.1l.1.2h25.4c14.6.1 27.5-9.3 31.8-23.1 4.3-13.8-1-28.8-13-36.9z"/><path fill="#36a852" d="M39 107.9h26.3V87.7H39c-1.9 0-3.7-.4-5.4-1.1l-15.2 14.6v.2c6 4.3 13.2 6.6 20.7 6.6z"/><path fill="#f9bc15" d="M40.2 41.9c-14.9.1-28.1 9.3-32.9 22.8-4.8 13.6 0 28.5 11.8 37.3l15.6-14.9c-8.6-3.7-10.6-14.5-4-20.8 6.6-6.4 17.8-4.4 21.7 3.8L68 55.2C61.4 46.9 51.1 42 40.2 42.1z"/></symbol>
  <symbol id="kubernetes" viewBox="0 0 128 128"><g fill="#486bb3"><path d="M56.484 55.098c.37.27.82.43 1.31.43 1.2 0 2.18-.95 2.23-2.13l.05-.03.75-13.26c-.9.11-1.8.26-2.7.46-4.93 1.12-9.2 3.55-12.54 6.83l10.87 7.71.03-.01zM55.034 74.528a2.218 2.218 0 00-2.58-1.69l-.02-.03-13.05 2.21a26.15 26.15 0 0010.51 13.15l5.06-12.22-.04-.05c.17-.42.23-.89.12-1.37zM50.694 65.118c.44-.12.85-.38 1.16-.76.75-.94.62-2.29-.28-3.07l.01-.05-9.93-8.88a26.07 26.07 0 00-3.7 16.48l12.73-3.67.01-.05zM60.334 69.018l3.66 1.76 3.66-1.75.9-3.95-2.53-3.16h-4.06l-2.54 3.16zM67.934 53.348c.02.46.18.91.49 1.29.75.94 2.1 1.11 3.06.41l.04.02 10.8-7.66c-4.08-3.99-9.4-6.6-15.15-7.3l.75 13.24h.01zM75.514 72.778c-.17-.03-.34-.05-.51-.04-.29.01-.58.09-.85.22a2.23 2.23 0 00-1.08 2.89l-.02.02 5.11 12.34c4.93-3.14 8.61-7.83 10.54-13.24l-13.16-2.23-.03.04zM65.954 79.318a2.246 2.246 0 00-2.04-1.17c-.77.03-1.5.46-1.89 1.18h-.01l-6.42 11.6a26.16 26.16 0 0014.27.73c.88-.2 1.74-.44 2.57-.72l-6.43-11.63h-.05z"/><path d="M124.544 76.788l-10.44-45.33a8.012 8.012 0 00-4.37-5.43l-42.24-20.18a8.157 8.157 0 00-3.92-.78 8.15 8.15 0 00-3.1.78l-42.24 20.18a8.055 8.055 0 00-4.37 5.43l-10.41 45.34a7.92 7.92 0 001.1 6.14c.14.22.3.43.46.64l29.24 36.35a8.087 8.087 0 006.32 3.01l46.89-.01c2.46 0 4.78-1.11 6.32-3.01l29.23-36.36a7.981 7.981 0 001.53-6.77zm-16.07-.55c-.31 1.35-1.76 2.17-3.26 1.85-.01 0-.03 0-.04-.01-.02 0-.03-.01-.05-.02-.21-.05-.47-.09-.65-.14-.86-.23-1.49-.58-2.27-.88-1.67-.6-3.06-1.1-4.41-1.3-.69-.05-1.04.27-1.42.52-.18-.04-.75-.14-1.08-.19-2.42 7.61-7.58 14.21-14.57 18.33.12.29.33.91.42 1.02-.16.43-.4.83-.19 1.49.49 1.27 1.28 2.52 2.24 4.01.46.69.94 1.22 1.36 2.02.1.19.23.48.33.68.65 1.39.17 2.99-1.08 3.59-1.26.61-2.82-.03-3.5-1.43-.1-.2-.23-.46-.31-.65-.36-.82-.48-1.52-.73-2.32-.57-1.68-1.05-3.07-1.73-4.25-.39-.57-.86-.64-1.29-.78-.08-.14-.38-.69-.54-.97-1.4.53-2.84.97-4.34 1.31-6.56 1.49-13.13.89-18.99-1.37l-.57 1.04c-.43.11-.84.23-1.09.53-.92 1.1-1.29 2.86-1.96 4.54-.25.79-.37 1.5-.73 2.32-.08.19-.22.45-.31.64v.01l-.01.01c-.67 1.39-2.23 2.03-3.49 1.43-1.25-.6-1.72-2.2-1.08-3.59.1-.2.22-.49.32-.68.42-.79.89-1.33 1.36-2.02.96-1.5 1.8-2.84 2.29-4.11.12-.42-.06-1-.22-1.43l.46-1.1c-6.73-3.99-12.04-10.34-14.58-18.21l-1.1.19c-.3-.17-.89-.56-1.45-.51-1.35.2-2.74.7-4.41 1.3-.78.3-1.4.64-2.27.87-.18.05-.44.1-.65.15-.02 0-.03.01-.05.02-.01 0-.03 0-.04.01-1.5.32-2.95-.5-3.26-1.85-.31-1.35.65-2.72 2.14-3.08.01 0 .03-.01.04-.01.01 0 .01 0 .02-.01.21-.05.48-.12.68-.16.88-.17 1.6-.13 2.43-.19 1.77-.19 3.23-.34 4.53-.75.41-.17.81-.74 1.09-1.1l1.06-.31c-1.19-8.22.82-16.28 5.16-22.81l-.81-.72c-.05-.32-.12-1.04-.51-1.46-.99-.93-2.25-1.71-3.76-2.64-.72-.42-1.38-.69-2.1-1.23-.15-.11-.36-.29-.52-.42-.01-.01-.03-.02-.04-.03-1.21-.97-1.49-2.64-.62-3.73.49-.61 1.24-.92 2.01-.89.6.02 1.23.24 1.76.66.17.14.41.32.56.45.68.58 1.09 1.16 1.66 1.77 1.25 1.27 2.28 2.32 3.41 3.08.59.35 1.05.21 1.5.15.15.11.63.46.91.65 4.3-4.57 9.96-7.95 16.52-9.44 1.53-.35 3.05-.58 4.57-.7l.06-1.07c.34-.33.71-.79.82-1.31.11-1.36-.07-2.82-.28-4.59-.12-.82-.31-1.51-.35-2.4-.01-.18 0-.44.01-.65 0-.02-.01-.05-.01-.07 0-1.55 1.13-2.81 2.53-2.81s2.53 1.26 2.53 2.81c0 .22.01.52.01.72-.03.89-.23 1.58-.35 2.4-.21 1.76-.4 3.23-.29 4.59.1.68.5.95.83 1.26.01.18.04.79.06 1.13 8.04.71 15.5 4.39 20.99 10.14l.96-.69c.33.02 1.04.12 1.53-.17 1.13-.76 2.16-1.82 3.41-3.08.57-.61.99-1.18 1.67-1.77.15-.13.39-.31.56-.45 1.21-.97 2.9-.86 3.77.23s.59 2.76-.62 3.73c-.17.14-.39.33-.56.45-.72.53-1.38.8-2.1 1.23-1.51.93-2.77 1.71-3.76 2.64-.47.5-.43.98-.48 1.43-.14.13-.63.57-.9.8a32.75 32.75 0 014.74 10.95c.92 3.99 1.06 7.97.53 11.8l1.02.3c.18.26.56.89 1.09 1.1 1.3.41 2.76.56 4.53.75.83.07 1.55.03 2.43.19.21.04.52.12.73.17 1.5.37 2.45 1.74 2.14 3.09z"/><path d="M86.274 52.358l-9.88 8.84.01.03c-.34.3-.6.7-.71 1.18-.27 1.17.44 2.33 1.58 2.65l.01.05 12.79 3.68c.27-2.76.11-5.62-.55-8.48-.66-2.89-1.77-5.56-3.25-7.95z"/></g></symbol>
  <symbol id="cloudflare" viewBox="0 0 128 128"><path fill="#FFF" d="m115.679 69.288-15.591-8.94-2.689-1.163-63.781.436v32.381h82.061z"/><path fill="#F38020" d="M87.295 89.022c.763-2.617.472-5.015-.8-6.796-1.163-1.635-3.125-2.58-5.488-2.689l-44.737-.581c-.291 0-.545-.145-.691-.363s-.182-.509-.109-.8c.145-.436.581-.763 1.054-.8l45.137-.581c5.342-.254 11.157-4.579 13.192-9.885l2.58-6.723c.109-.291.145-.581.073-.872-2.906-13.158-14.644-22.97-28.672-22.97-12.938 0-23.913 8.359-27.838 19.952a13.35 13.35 0 0 0-9.267-2.58c-6.215.618-11.193 5.597-11.811 11.811-.145 1.599-.036 3.162.327 4.615C10.104 70.051 2 78.337 2 88.549c0 .909.073 1.817.182 2.726a.895.895 0 0 0 .872.763h82.57c.472 0 .909-.327 1.054-.8l.617-2.216z"/><path fill="#FAAE40" d="M101.542 60.275c-.4 0-.836 0-1.236.036-.291 0-.545.218-.654.509l-1.744 6.069c-.763 2.617-.472 5.015.8 6.796 1.163 1.635 3.125 2.58 5.488 2.689l9.522.581c.291 0 .545.145.691.363.145.218.182.545.109.8-.145.436-.581.763-1.054.8l-9.924.582c-5.379.254-11.157 4.579-13.192 9.885l-.727 1.853c-.145.363.109.727.509.727h34.089c.4 0 .763-.254.872-.654.581-2.108.909-4.325.909-6.614 0-13.447-10.975-24.422-24.458-24.422"/></symbol>
</svg>
